<?xml version="1.0" encoding="UTF-8"?>
<svg id="_레이어_1" data-name="레이어_1" xmlns="http://www.w3.org/2000/svg" viewBox="0 0 20 20">
  <defs>
    <style>
      .cls-1 {
        fill: #494949;
      }

      .cls-2 {
        fill: #f6bebe;
      }
    </style>
  </defs>
  <g>
    <circle class="cls-2" cx="10" cy="10" r="9.3"/>
    <path class="cls-1" d="M10,20C4.49,20,0,15.51,0,10S4.49,0,10,0s10,4.49,10,10-4.49,10-10,10ZM10,1.39C5.26,1.39,1.4,5.25,1.4,10s3.86,8.6,8.6,8.6,8.6-3.86,8.6-8.6S14.74,1.39,10,1.39Z"/>
  </g>
  <path class="cls-1" d="M14.8,10.7H5.2c-.39,0-.7-.31-.7-.7s.31-.7.7-.7h9.6c.39,0,.7.31.7.7s-.31.7-.7.7Z"/>
  <path class="cls-1" d="M10,15.5c-.39,0-.7-.31-.7-.7V5.2c0-.39.31-.7.7-.7s.7.31.7.7v9.6c0,.39-.31.7-.7.7Z"/>
</svg>