<svg width="171" height="189" viewBox="0 0 171 189" fill="none" xmlns="http://www.w3.org/2000/svg">
<path d="M134.903 145.756H34.625V217H134.903V145.756Z" fill="white"/>
<path d="M25.6989 155.363C25.6989 155.363 16.0067 179.632 33.4198 185.513C49.998 191.119 53.596 176.104 53.596 176.104" fill="white"/>
<path d="M40.3319 188.928C37.9735 188.928 35.4342 188.471 32.7314 187.557C28.0231 185.97 24.6575 183.03 22.7208 178.83C18.1072 168.808 23.4697 155.139 23.6935 154.561C24.1325 153.457 25.3892 152.914 26.491 153.363C27.5927 153.802 28.1264 155.062 27.6874 156.165C27.6358 156.286 22.7811 168.713 26.6287 177.036C28.0661 180.158 30.5107 182.262 34.1 183.478C38.7395 185.048 42.6388 184.996 45.6858 183.323C50.1445 180.873 51.4787 175.656 51.4959 175.604C51.78 174.449 52.9506 173.741 54.0954 174.026C55.2488 174.311 55.9547 175.466 55.6792 176.622C55.6104 176.906 53.9233 183.694 47.8033 187.083C45.5653 188.325 43.0691 188.937 40.3233 188.937L40.3319 188.928Z" fill="#D1D3D4"/>
<path d="M145.722 155.897C145.722 155.897 155.414 180.166 138.001 186.047C121.423 191.653 117.825 176.638 117.825 176.638" fill="white"/>
<path d="M131.09 189.463C128.344 189.463 125.848 188.842 123.61 187.609C117.49 184.219 115.803 177.441 115.734 177.148C115.459 175.992 116.164 174.828 117.326 174.552C118.48 174.276 119.642 174.983 119.917 176.147C119.926 176.19 121.269 181.408 125.727 183.857C128.775 185.53 132.674 185.582 137.313 184.012C140.903 182.796 143.347 180.692 144.785 177.57C148.632 169.248 143.778 156.821 143.726 156.7C143.287 155.596 143.821 154.337 144.931 153.897C146.033 153.457 147.281 153.992 147.728 155.096C147.961 155.674 153.323 169.343 148.701 179.364C146.764 183.564 143.399 186.505 138.69 188.092C135.988 189.006 133.448 189.463 131.09 189.463Z" fill="#D1D3D4"/>
<path d="M86.2187 65.6295C107.877 65.6295 125.435 50.9379 125.435 32.8148C125.435 14.6917 107.877 0 86.2187 0C64.5603 0 47.0027 14.6917 47.0027 32.8148C47.0027 50.9379 64.5603 65.6295 86.2187 65.6295Z" fill="white"/>
<path d="M84.6525 115.339C109.377 115.339 129.42 95.2571 129.42 70.4849C129.42 45.7127 109.377 25.6309 84.6525 25.6309C59.9278 25.6309 39.8845 45.7127 39.8845 70.4849C39.8845 95.2571 59.9278 115.339 84.6525 115.339Z" fill="white"/>
<path d="M135.738 136.322C153.826 136.322 168.49 122.966 168.49 106.491C168.49 90.0159 153.826 76.6602 135.738 76.6602C117.65 76.6602 102.986 90.0159 102.986 106.491C102.986 122.966 117.65 136.322 135.738 136.322Z" fill="white"/>
<path d="M33.5577 136.322C51.646 136.322 66.3095 122.966 66.3095 106.491C66.3095 90.0159 51.646 76.6602 33.5577 76.6602C15.4694 76.6602 0.805908 90.0159 0.805908 106.491C0.805908 122.966 15.4694 136.322 33.5577 136.322Z" fill="white"/>
<path d="M137.701 88.984C155.789 88.984 170.453 74.2924 170.453 56.1693C170.453 38.0462 155.789 23.3545 137.701 23.3545C119.612 23.3545 104.949 38.0462 104.949 56.1693C104.949 74.2924 119.612 88.984 137.701 88.984Z" fill="white"/>
<path d="M34.7369 90.0358C52.8252 90.0358 67.4887 75.3441 67.4887 57.221C67.4887 39.0979 52.8252 24.4062 34.7369 24.4062C16.6486 24.4062 1.98511 39.0979 1.98511 57.221C1.98511 75.3441 16.6486 90.0358 34.7369 90.0358Z" fill="white"/>
<path d="M85.2204 147.412C105.191 147.412 121.381 131.191 121.381 111.182C121.381 91.1728 105.191 74.9521 85.2204 74.9521C65.2496 74.9521 49.0601 91.1728 49.0601 111.182C49.0601 131.191 65.2496 147.412 85.2204 147.412Z" fill="white"/>
<path d="M143.812 162.048L95.6614 171.715C88.1211 172.828 80.3743 172.811 72.8427 171.681L26.1381 162.074C21.7912 161.418 18.6409 158.434 18.6409 154.959V140.177C18.6409 136.339 22.454 133.165 27.3431 132.941L73.8756 130.846C80.7875 130.535 87.7166 130.527 94.6371 130.837L142.641 132.95C147.531 133.166 151.352 136.339 151.352 140.186V154.933C151.352 158.417 148.185 161.418 143.821 162.056L143.812 162.048Z" fill="white"/>
<path d="M84.3681 174.699C80.4086 174.699 76.4491 174.406 72.5155 173.811L72.4036 173.793L25.7506 164.195C20.3795 163.367 16.4802 159.486 16.4802 154.958V140.177C16.4802 135.183 21.2058 131.061 27.2397 130.785L73.7722 128.689C80.7271 128.379 87.7767 128.37 94.723 128.681L142.727 130.802C148.77 131.07 153.495 135.192 153.495 140.194V154.941C153.495 159.495 149.579 163.376 144.182 164.186L95.9711 173.862C92.1235 174.432 88.2415 174.708 84.3681 174.708V174.699ZM73.2127 169.55C80.5291 170.646 87.9574 170.654 95.2911 169.585L143.493 159.909C146.79 159.426 149.183 157.321 149.183 154.915V140.168C149.183 137.529 146.196 135.252 142.529 135.088L94.525 132.967C87.7078 132.665 80.7873 132.665 73.9615 132.976L27.429 135.071C23.7622 135.235 20.784 137.52 20.784 140.151V154.933C20.784 157.33 23.1683 159.426 26.4478 159.917L26.5597 159.935L73.2127 169.533V169.55Z" fill="#D1D3D4"/>
<path d="M105.465 69.182C104.045 67.8453 102.065 67.2761 100.18 67.6728C98.2523 68.0781 96.7201 69.4062 95.868 71.407C94.9814 73.4855 95.0761 75.5121 96.1348 77.1162C97.1936 78.7289 99.0872 79.6517 101.325 79.6603H101.342C103.847 79.6603 106.326 77.9786 107.247 75.6673C108.134 73.4423 107.488 71.0793 105.474 69.182H105.465Z" fill="#D1D3D4"/>
<path d="M71.6807 68.9151C70.4843 67.7508 68.6164 67.2592 66.7916 67.6473C64.7603 68.0785 63.1248 69.5188 62.2985 71.5885C61.5755 73.4082 61.8423 75.547 62.9957 77.1684C64.1319 78.7638 65.9481 79.6694 68.0225 79.6694C68.1344 79.6694 68.2377 79.6694 68.3496 79.6694C70.4154 79.5745 72.1369 78.2464 72.9547 76.1162C73.9273 73.5635 73.4023 70.6054 71.6894 68.9237L71.6807 68.9151Z" fill="#D1D3D4"/>
<path d="M95.1192 84.7057C95.1192 84.7057 95.0762 84.7057 95.0589 84.7057C94.267 84.7402 93.6559 85.4129 93.6903 86.1977C93.6989 86.4564 93.8711 92.5882 86.2792 94.1578C82.9395 94.8477 79.6514 94.0801 77.4823 92.0794C75.8383 90.5701 75.0722 88.5607 75.3304 86.4219C75.4251 85.6371 74.8656 84.9213 74.0737 84.8265C73.2904 84.7316 72.576 85.2922 72.4813 86.0856C72.1198 89.1213 73.2388 92.0793 75.5456 94.2009C77.7233 96.2017 80.7101 97.2797 83.8949 97.2797C84.8676 97.2797 85.8661 97.1762 86.8645 96.9692C94.8265 95.3134 96.6858 89.1213 96.5567 86.0683C96.5222 85.2922 95.8853 84.6885 95.1278 84.6885L95.1192 84.7057Z" fill="#D1D3D4"/>
</svg>
