<?xml version="1.0" encoding="UTF-8"?>
<svg id="_레이어_1" data-name="레이어_1" xmlns="http://www.w3.org/2000/svg" viewBox="0 0 30 30">
  <defs>
    <style>
      .cls-1 {
        fill: #494949;
      }

      .cls-2 {
        fill: #f6bebe;
      }
    </style>
  </defs>
  <g>
    <circle class="cls-2" cx="15" cy="24.59" r="4.7"/>
    <path class="cls-1" d="M15,30c-2.98,0-5.41-2.43-5.41-5.41s2.43-5.41,5.41-5.41,5.41,2.43,5.41,5.41-2.43,5.41-5.41,5.41ZM15,20.6c-2.2,0-3.98,1.79-3.98,3.98s1.79,3.98,3.98,3.98,3.98-1.79,3.98-3.98-1.79-3.98-3.98-3.98Z"/>
  </g>
  <g>
    <path class="cls-2" d="M26.51,19.38h-.08v-5.71c0-5.52-3.91-10.13-9.12-11.19-.29-1.01-1.21-1.76-2.31-1.76s-2.02.75-2.31,1.76C7.49,3.54,3.57,8.15,3.57,13.67v5.71h-.08c-1.53,0-2.77,1.24-2.77,2.77v.17c0,1.53,1.24,2.77,2.77,2.77h23.03c1.53,0,2.77-1.24,2.77-2.77v-.17c0-1.53-1.24-2.77-2.77-2.77Z"/>
    <path class="cls-1" d="M26.51,25.81H3.57c-2.01,0-3.57-1.56-3.57-3.49v-.17c0-1.71,1.23-3.13,2.86-3.43v-5.06C2.86,8.06,6.74,3.16,12.15,1.86,12.65.75,13.76,0,15,0s2.35.75,2.85,1.86c5.41,1.3,9.3,6.2,9.3,11.81v5.06c1.62.3,2.86,1.72,2.86,3.43v.17c0,1.92-1.56,3.49-3.49,3.49ZM15,1.43c-.75,0-1.42.51-1.62,1.24-.07.26-.28.45-.54.51-4.95,1.02-8.55,5.43-8.55,10.49v5.71c0,.39-.32.71-.71.71-1.22,0-2.14.92-2.14,2.06v.17c0,1.13.92,2.06,2.06,2.06h22.94c1.22,0,2.14-.92,2.14-2.06v-.17c0-1.13-.92-2.06-2.06-2.06h-.08c-.39,0-.71-.32-.71-.71v-5.71c0-5.06-3.59-9.48-8.55-10.49-.26-.05-.47-.25-.54-.51-.21-.73-.87-1.24-1.62-1.24Z"/>
  </g>
  <path class="cls-1" d="M22.32,20.26H7.68c-.39,0-.71-.32-.71-.71s.32-.71.71-.71h14.64c.39,0,.71.32.71.71s-.32.71-.71.71Z"/>
</svg>