<svg width="27" height="25" viewBox="0 0 27 25" fill="none" xmlns="http://www.w3.org/2000/svg">
<path d="M22.25 4.51904H4.75C2.67893 4.51904 1 6.2012 1 8.27625V19.5479C1 21.6229 2.67893 23.3051 4.75 23.3051H22.25C24.3211 23.3051 26 21.6229 26 19.5479V8.27625C26 6.2012 24.3211 4.51904 22.25 4.51904Z" stroke="#494949" stroke-width="1.5" stroke-linecap="round" stroke-linejoin="round"/>
<path d="M13.4999 19.0722C16.3441 19.0722 18.6499 16.7621 18.6499 13.9123C18.6499 11.0626 16.3441 8.75244 13.4999 8.75244C10.6556 8.75244 8.34985 11.0626 8.34985 13.9123C8.34985 16.7621 10.6556 19.0722 13.4999 19.0722Z" stroke="#494949" stroke-width="1.5" stroke-linecap="round" stroke-linejoin="round"/>
<path d="M20.0753 4.51925C19.9503 2.55298 18.3378 1 16.3503 1H10.6503C8.66279 1 7.05029 2.5655 6.92529 4.51925H20.0878H20.0753Z" fill="#494949" stroke="#494949" stroke-width="1.5" stroke-linecap="round" stroke-linejoin="round"/>
</svg>
