<svg width="32" height="32" viewBox="0 0 32 32" fill="none" xmlns="http://www.w3.org/2000/svg">
<path d="M16.2591 31C24.5274 31 31.2303 24.2843 31.2303 16C31.2303 7.71573 24.5274 1 16.2591 1C7.99068 1 1.28784 7.71573 1.28784 16C1.28784 24.2843 7.99068 31 16.2591 31Z" fill="#FFFCF0" stroke="#494949" stroke-width="1.5" stroke-linecap="round" stroke-linejoin="round"/>
<path d="M22.1083 10.9805H10.4099C9.02541 10.9805 7.90308 12.105 7.90308 13.4921V21.027C7.90308 22.4141 9.02541 23.5386 10.4099 23.5386H22.1083C23.4928 23.5386 24.6151 22.4141 24.6151 21.027V13.4921C24.6151 12.105 23.4928 10.9805 22.1083 10.9805Z" stroke="#494949" stroke-width="1.5" stroke-linecap="round" stroke-linejoin="round"/>
<path d="M16.2591 20.7092C18.1604 20.7092 19.7018 19.1648 19.7018 17.2598C19.7018 15.3549 18.1604 13.8105 16.2591 13.8105C14.3577 13.8105 12.8164 15.3549 12.8164 17.2598C12.8164 19.1648 14.3577 20.7092 16.2591 20.7092Z" stroke="#494949" stroke-width="1.5" stroke-linecap="round" stroke-linejoin="round"/>
<path d="M20.6543 10.9805C20.5707 9.66607 19.4928 8.62793 18.1642 8.62793H14.3539C13.0253 8.62793 11.9473 9.67444 11.8638 10.9805H20.6627H20.6543Z" fill="#494949" stroke="#494949" stroke-width="1.5" stroke-linecap="round" stroke-linejoin="round"/>
</svg>
