<?xml version="1.0" encoding="UTF-8"?>
<svg id="_선깸" data-name="선깸" xmlns="http://www.w3.org/2000/svg" version="1.1" viewBox="0 0 30 30">
  <!-- Generator: Adobe Illustrator 29.2.0, SVG Export Plug-In . SVG Version: 2.1.0 Build 108)  -->
  <defs>
    <style>
      .st0 {
        fill: #494949;
      }

      .st1 {
        fill: #fff;
      }
    </style>
  </defs>
  <circle class="st1" cx="15" cy="15" r="15"/>
  <g>
    <g>
      <path class="st0" d="M20.71,11.21c.79,0,1.43.64,1.43,1.43v7.14c0,.79-.64,1.43-1.43,1.43h-11.43c-.79,0-1.43-.64-1.43-1.43v-7.14c0-.79.64-1.43,1.43-1.43h11.43M20.71,9.78h-11.43c-1.58,0-2.86,1.28-2.86,2.86v7.14c0,1.58,1.28,2.86,2.86,2.86h11.43c1.58,0,2.86-1.28,2.86-2.86v-7.14c0-1.58-1.28-2.86-2.86-2.86h0Z"/>
      <path class="st0" d="M15,14.11c1.16,0,2.1.94,2.1,2.1s-.94,2.1-2.1,2.1-2.1-.94-2.1-2.1.94-2.1,2.1-2.1M15,12.68c-1.95,0-3.53,1.58-3.53,3.53s1.58,3.53,3.53,3.53,3.53-1.58,3.53-3.53-1.58-3.53-3.53-3.53h0Z"/>
      <path class="st0" d="M16.96,7.37h-3.91c-1.37,0-2.47,1.07-2.56,2.41h9.02c-.08-1.34-1.19-2.41-2.56-2.41h0Z"/>
    </g>
    <path class="st0" d="M15,30C6.73,30,0,23.27,0,15S6.73,0,15,0s15,6.73,15,15-6.73,15-15,15ZM15,1.43C7.52,1.43,1.43,7.52,1.43,15s6.09,13.57,13.57,13.57,13.57-6.09,13.57-13.57S22.48,1.43,15,1.43Z"/>
  </g>
</svg>