<?xml version="1.0" encoding="UTF-8"?>
<svg xmlns="http://www.w3.org/2000/svg" version="1.1" viewBox="0 0 15 15">
  <defs>
    <style>
      .chat-cls-1 {
        fill: #494949;
      }
    </style>
  </defs>
  <!-- Generator: Adobe Illustrator 28.7.5, SVG Export Plug-In . SVG Version: 1.2.0 Build 176)  -->
  <g>
    <g id="_선깸" data-name="선깸">
      <g>
        <path class="chat-cls-1" d="M7.5,15H.68c-.24,0-.47-.13-.59-.34-.12-.21-.12-.47,0-.68l1.27-2.22C.47,10.49,0,9.02,0,7.5,0,3.36,3.36,0,7.5,0s7.5,3.36,7.5,7.5-3.36,7.5-7.5,7.5ZM1.86,13.64h5.64c3.38,0,6.14-2.75,6.14-6.14S10.88,1.36,7.5,1.36,1.36,4.12,1.36,7.5c0,1.37.46,2.67,1.34,3.78.17.22.2.52.06.76l-.91,1.59Z"/>
        <g>
          <g>
            <circle class="chat-cls-1" cx="4.87" cy="7.5" r=".48"/>
            <path class="chat-cls-1" d="M4.87,8.43c-.51,0-.93-.42-.93-.93s.42-.93.93-.93.93.42.93.93-.42.93-.93.93ZM4.87,7.48l.02.02s-.01-.02-.02-.02Z"/>
          </g>
          <g>
            <circle class="chat-cls-1" cx="7.5" cy="7.5" r=".48"/>
            <path class="chat-cls-1" d="M7.5,8.43c-.51,0-.93-.42-.93-.93s.42-.93.93-.93.93.42.93.93-.42.93-.93.93ZM7.5,7.48l.02.02s-.01-.02-.02-.02Z"/>
          </g>
          <g>
            <circle class="chat-cls-1" cx="10.13" cy="7.5" r=".48"/>
            <path class="chat-cls-1" d="M10.13,8.43c-.51,0-.93-.42-.93-.93s.42-.93.93-.93.93.42.93.93-.42.93-.93.93ZM10.13,7.48l.02.02s-.01-.02-.02-.02Z"/>
          </g>
        </g>
      </g>
    </g>
  </g>
</svg>