<svg width="32" height="32" viewBox="0 0 32 32" fill="none" xmlns="http://www.w3.org/2000/svg">
<path d="M16 31C24.2843 31 31 24.2843 31 16C31 7.71573 24.2843 1 16 1C7.71573 1 1 7.71573 1 16C1 24.2843 7.71573 31 16 31Z" fill="#F8F3CE" stroke="#494949" stroke-width="1.5" stroke-linecap="round" stroke-linejoin="round"/>
<g clip-path="url(#clip0_235_20)">
<path d="M16.5 23H9.68C9.44 23 9.21 22.87 9.09 22.66C8.97 22.45 8.97 22.19 9.09 21.98L10.36 19.76C9.47 18.49 9 17.02 9 15.5C9 11.36 12.36 8 16.5 8C20.64 8 24 11.36 24 15.5C24 19.64 20.64 23 16.5 23ZM10.86 21.64H16.5C19.88 21.64 22.64 18.89 22.64 15.5C22.64 12.11 19.88 9.36 16.5 9.36C13.12 9.36 10.36 12.12 10.36 15.5C10.36 16.87 10.82 18.17 11.7 19.28C11.87 19.5 11.9 19.8 11.76 20.04L10.85 21.63L10.86 21.64Z" fill="#494949"/>
<path d="M13.87 15.98C14.1351 15.98 14.35 15.7651 14.35 15.5C14.35 15.2349 14.1351 15.02 13.87 15.02C13.6049 15.02 13.39 15.2349 13.39 15.5C13.39 15.7651 13.6049 15.98 13.87 15.98Z" fill="#494949"/>
<path d="M13.87 16.4301C13.36 16.4301 12.94 16.0101 12.94 15.5001C12.94 14.9901 13.36 14.5701 13.87 14.5701C14.38 14.5701 14.8 14.9901 14.8 15.5001C14.8 16.0101 14.38 16.4301 13.87 16.4301ZM13.87 15.4801L13.89 15.5001C13.89 15.5001 13.88 15.4801 13.87 15.4801Z" fill="#494949"/>
<path d="M16.5 15.98C16.7651 15.98 16.98 15.7651 16.98 15.5C16.98 15.2349 16.7651 15.02 16.5 15.02C16.2349 15.02 16.02 15.2349 16.02 15.5C16.02 15.7651 16.2349 15.98 16.5 15.98Z" fill="#494949"/>
<path d="M16.5 16.4301C15.99 16.4301 15.57 16.0101 15.57 15.5001C15.57 14.9901 15.99 14.5701 16.5 14.5701C17.01 14.5701 17.43 14.9901 17.43 15.5001C17.43 16.0101 17.01 16.4301 16.5 16.4301ZM16.5 15.4801L16.52 15.5001C16.52 15.5001 16.51 15.4801 16.5 15.4801Z" fill="#494949"/>
<path d="M19.13 15.98C19.3951 15.98 19.61 15.7651 19.61 15.5C19.61 15.2349 19.3951 15.02 19.13 15.02C18.8649 15.02 18.65 15.2349 18.65 15.5C18.65 15.7651 18.8649 15.98 19.13 15.98Z" fill="#494949"/>
<path d="M19.13 16.4301C18.62 16.4301 18.2 16.0101 18.2 15.5001C18.2 14.9901 18.62 14.5701 19.13 14.5701C19.64 14.5701 20.06 14.9901 20.06 15.5001C20.06 16.0101 19.64 16.4301 19.13 16.4301ZM19.13 15.4801L19.15 15.5001C19.15 15.5001 19.14 15.4801 19.13 15.4801Z" fill="#494949"/>
</g>
<defs>
<clipPath id="clip0_235_20">
<rect width="15" height="15" fill="white" transform="translate(9 8)"/>
</clipPath>
</defs>
</svg>
