<?xml version="1.0" encoding="UTF-8"?>
<svg id="_레이어_1" data-name="레이어_1" xmlns="http://www.w3.org/2000/svg" viewBox="0 0 20 20">
  <defs>
    <style>
      .check_o-cls-1 {
        fill: #494949;
      }

      .check_o-cls-2 {
        fill: #f6bebe;
      }
    </style>
  </defs>
  <g>
    <rect class="check_o-cls-2" x=".75" y=".75" width="18.5" height="18.5" rx="5" ry="5"/>
    <path class="check_o-cls-1" d="M14.25,20H5.75c-3.17,0-5.75-2.58-5.75-5.75V5.75C0,2.58,2.58,0,5.75,0h8.5C17.42,0,20,2.58,20,5.75v8.5c0,3.17-2.58,5.75-5.75,5.75ZM5.75,1.5C3.41,1.5,1.5,3.41,1.5,5.75v8.5c0,2.34,1.91,4.25,4.25,4.25h8.5c2.34,0,4.25-1.91,4.25-4.25V5.75c0-2.34-1.91-4.25-4.25-4.25H5.75Z"/>
  </g>
  <path class="check_o-cls-1" d="M8.69,14.07c-.19,0-.38-.07-.53-.22l-4.03-4.03c-.29-.29-.29-.77,0-1.06s.77-.29,1.06,0l3.5,3.5,6.12-6.12c.29-.29.77-.29,1.06,0s.29.77,0,1.06l-6.65,6.65c-.15.15-.34.22-.53.22Z"/>
</svg>