<?xml version="1.0" encoding="UTF-8"?>
<svg id="_레이어_1" data-name="레이어_1" xmlns="http://www.w3.org/2000/svg" viewBox="0 0 20 20">
  <defs>
    <style>
      .check_x-cls-1 {
        fill: #494949;
      }
    </style>
  </defs>
  <path class="check_x-cls-1" d="M14.25,20H5.75c-3.17,0-5.75-2.58-5.75-5.75V5.75C0,2.58,2.58,0,5.75,0h8.5C17.42,0,20,2.58,20,5.75v8.5c0,3.17-2.58,5.75-5.75,5.75ZM5.75,1.5C3.41,1.5,1.5,3.41,1.5,5.75v8.5c0,2.34,1.91,4.25,4.25,4.25h8.5c2.34,0,4.25-1.91,4.25-4.25V5.75c0-2.34-1.91-4.25-4.25-4.25H5.75Z"/>
</svg>