<?xml version="1.0" encoding="UTF-8"?>
<svg id="_선깸" data-name="선깸" xmlns="http://www.w3.org/2000/svg" viewBox="0 0 20 20">
  <defs>
    <style>
      .comment-cls-1 {
        fill: #494949;
      }
    </style>
  </defs>
  <path class="comment-cls-1" d="M17.64,1.59c.48,0,.87.38.87.84v11.31c0,.46-.39.84-.87.84H5.93c-.3,0-.59.09-.84.26l-3.57,2.42V2.43c0-.46.39-.84.87-.84h15.25M17.64.09H2.39C1.08.09.02,1.14.02,2.43v17.66l5.91-4h11.72c1.31,0,2.37-1.05,2.37-2.34V2.43c0-1.29-1.06-2.34-2.37-2.34h0Z"/>
  <path class="comment-cls-1" d="M14.53,6.75H5.5c-.41,0-.75-.34-.75-.75s.34-.75.75-.75h9.03c.41,0,.75.34.75.75s-.34.75-.75.75Z"/>
  <path class="comment-cls-1" d="M14.53,11.12H5.5c-.41,0-.75-.34-.75-.75s.34-.75.75-.75h9.03c.41,0,.75.34.75.75s-.34.75-.75.75Z"/>
</svg>