<svg width="25" height="20" viewBox="0 0 25 20" fill="none" xmlns="http://www.w3.org/2000/svg">
<mask id="path-1-inside-1_24_1939" fill="white">
<path fill-rule="evenodd" clip-rule="evenodd" d="M5.49994 20H10.4512H14.5487H19.4999C22.2614 20 24.4999 17.7614 24.4999 15V5C24.4999 2.23858 22.2614 0 19.4999 0H18.4512C16.0881 0 13.9644 1.02452 12.4999 2.65359C11.0355 1.02452 8.91173 0 6.54871 0H5.49994C2.73851 0 0.499939 2.23857 0.499939 5V15C0.499939 17.7614 2.73852 20 5.49994 20Z"/>
</mask>
<path fill-rule="evenodd" clip-rule="evenodd" d="M5.49994 20H10.4512H14.5487H19.4999C22.2614 20 24.4999 17.7614 24.4999 15V5C24.4999 2.23858 22.2614 0 19.4999 0H18.4512C16.0881 0 13.9644 1.02452 12.4999 2.65359C11.0355 1.02452 8.91173 0 6.54871 0H5.49994C2.73851 0 0.499939 2.23857 0.499939 5V15C0.499939 17.7614 2.73852 20 5.49994 20Z" fill="white"/>
<path d="M5.49994 20L5.49994 21.5H5.49994V20ZM12.4999 2.65359L11.3844 3.6564L12.4999 4.89729L13.6155 3.6564L12.4999 2.65359ZM10.4512 18.5H5.49994V21.5H10.4512V18.5ZM14.5487 18.5H10.4512V21.5H14.5487V18.5ZM19.4999 18.5H14.5487V21.5H19.4999V18.5ZM22.9999 15C22.9999 16.933 21.4329 18.5 19.4999 18.5V21.5C23.0898 21.5 25.9999 18.5898 25.9999 15H22.9999ZM22.9999 5V15H25.9999V5H22.9999ZM19.4999 1.5C21.4329 1.5 22.9999 3.06701 22.9999 5H25.9999C25.9999 1.41015 23.0898 -1.5 19.4999 -1.5V1.5ZM18.4512 1.5H19.4999V-1.5H18.4512V1.5ZM13.6155 3.6564C14.8075 2.33041 16.5313 1.5 18.4512 1.5V-1.5C15.645 -1.5 13.1214 -0.281374 11.3844 1.65078L13.6155 3.6564ZM6.54871 1.5C8.46854 1.5 10.1924 2.33041 11.3844 3.6564L13.6155 1.65078C11.8785 -0.281374 9.35492 -1.5 6.54871 -1.5V1.5ZM5.49994 1.5H6.54871V-1.5H5.49994V1.5ZM1.99994 5C1.99994 3.067 3.56694 1.5 5.49994 1.5V-1.5C1.91009 -1.5 -1.00006 1.41015 -1.00006 5H1.99994ZM1.99994 15V5H-1.00006V15H1.99994ZM5.49994 18.5C3.56694 18.5 1.99994 16.933 1.99994 15H-1.00006C-1.00006 18.5899 1.91009 21.5 5.49994 21.5L5.49994 18.5Z" fill="#494949" mask="url(#path-1-inside-1_24_1939)"/>
<path d="M12.5 7.901L12.5 15.901" stroke="#494949" stroke-width="1.5" stroke-miterlimit="10" stroke-linecap="round"/>
</svg>
