<?xml version="1.0" encoding="UTF-8"?>
<svg xmlns="http://www.w3.org/2000/svg" version="1.1" viewBox="0 0 170 200">
  <defs>
    <style>
      .empty_todo-cls-1 {
        fill: #f4efca;
      }

      .empty_todo-cls-2 {
        fill: #d5d0ab;
      }

      .empty_todo-cls-3 {
        fill: #d8d3ae;
      }

      .empty_todo-cls-4 {
        fill: #47421d;
      }

      .empty_todo-cls-5 {
        fill: #a9a47f;
      }

      .empty_todo-cls-6 {
        fill: #58532e;
      }

      .empty_todo-cls-7 {
        fill: #b6b18c;
      }

      .empty_todo-cls-8 {
        fill: #99946f;
      }

      .empty_todo-cls-9 {
        fill: #706b46;
      }

      .empty_todo-cls-10 {
        fill: #e4dfba;
      }

      .empty_todo-cls-11 {
        fill: #afaa85;
      }
    </style>
  </defs>
  <!-- Generator: Adobe Illustrator 28.7.3, SVG Export Plug-In . SVG Version: 1.2.0 Build 164)  -->
  <g>
    <g id="_레이어_1" data-name="레이어_1">
      <g>
        <path class="empty_todo-cls-8" d="M41.87,129.23c-.98-1.13-2.55-1.73-4.53-1.73-.02,0-.03,0-.05,0-4.97.02-11.51,3.63-15.9,8.77-5.66,6.63-7.66,16.86-6.87,21.39.26,1.49.82,2.49,1.67,2.97.57.33,1.54.48,2.74.48,2.08,0,4.86-.47,7.52-1.34,3.95-1.3,11.1-4.66,14.61-12.59,2.67-6.04,4.07-14.23.82-17.96Z"/>
        <path class="empty_todo-cls-3" d="M119.97,116.49c-3.65-3.79-42.23-5.4-60.72-2.53-8.07,1.25-12.66,3.21-14.03,5.99-4.7,9.55-9.17,26.23-9.67,28.12-.72,1.43-5.47,11.56.48,20.1,4.6,6.6,12.38,6.97,16.82,6.55-1.04,22.53.26,23.05,1.3,23.47.29.12.94.17,1.86.17,4.09,0,13.59-1.01,21.63-1.95.7-.08,1.23-.67,1.24-1.38l.28-20.38,1.22.03,1.63,20.13c.05.68.59,1.22,1.26,1.29,10.77,1.08,23.94,2.25,25.5,1.62,1.14-.45,2.42-.97.61-25.52-.02-.29-.04-.51-.05-.65.2-1.69,2.2-17.86,4.1-24.93,1.36-5.04,2.84-9.59,4.14-13.61,2.98-9.17,4.62-14.22,2.39-16.53Z"/>
        <path class="empty_todo-cls-10" d="M145.81,85.22c2.52-.54,5.3-1.47,7.89-3.12,6.83-4.32,10.04-11.98,9.55-22.75-.56-12.38-13.23-23.01-24.24-24.81-7.4-1.21-12.61-.48-16.13.7.3-.81.55-1.7.7-2.69.86-5.61-1.57-12-7.23-18.99-5.64-6.97-15.19-11.21-26.21-11.64-12.48-.49-24.74,3.94-31.96,11.56-7.74,8.16-7.78,16.96-6.98,21.86-6.98-4.37-24.11-12.09-38.92,5.1-7.11,8.26-9.14,18.29-5.58,27.52,2.59,6.72,7.76,11.75,13.99,13.84-5.16,3.01-13.71,10.1-12.52,23.64,1.39,15.75,15.04,24.42,27.44,23.69,8.72-.51,13.97-2.33,16.56-3.53.66,3.49,3.16,10.29,12.59,15.84,5.91,3.47,11.81,5.21,17.66,5.21,6.11,0,12.16-1.89,18.11-5.68,7.38-4.69,10.26-12.22,11.32-16.22,3.68,3.18,12.63,8.38,27.98,2.67,7.65-2.85,13.74-8.47,16.3-15.05,2.15-5.53,1.79-11.39-1.05-16.93-2.82-5.52-6.24-8.57-9.3-10.23Z"/>
        <path class="empty_todo-cls-8" d="M143.9,136.3c-10.3-8.03-16.97-5.91-17.9-5.55-.9.3-1.33,1.29-1.6,2.14-.93,2.89-1.88,12.06,4.74,19.69,7.14,8.23,18.18,9.51,20.67,9.51.23,0,.39-.01.46-.03.62-.15,1.23-.51,1.83-3.29.7-3.22,2.17-14.37-8.22-22.47Z"/>
        <path class="empty_todo-cls-6" d="M103.73,67.58h0c-1.39-1.31-3.33-1.86-5.18-1.47-1.89.4-3.4,1.69-4.23,3.65-.87,2.04-.78,4.02.26,5.59,1.04,1.57,2.89,2.48,5.09,2.49h.01c2.45,0,4.89-1.64,5.79-3.91.87-2.18.23-4.49-1.74-6.34Z"/>
        <path class="empty_todo-cls-6" d="M70.61,67.32h0c-1.17-1.14-3.01-1.62-4.79-1.24-1.99.42-3.6,1.83-4.41,3.86-.71,1.78-.44,3.88.69,5.46,1.11,1.56,2.9,2.44,4.93,2.44.11,0,.21,0,.32,0,2.03-.09,3.72-1.39,4.51-3.48.95-2.5.44-5.39-1.24-7.04Z"/>
        <path class="empty_todo-cls-6" d="M93.54,82.78c-.77.03-1.38.68-1.35,1.45,0,.26.11,6.27-7.27,7.8-3.28.68-6.5-.08-8.63-2.03-1.61-1.48-2.36-3.44-2.11-5.53.09-.77-.46-1.47-1.23-1.56-.77-.09-1.47.46-1.56,1.23-.35,2.97.74,5.86,3,7.94,2.14,1.96,5.07,3.01,8.19,3.01.96,0,1.93-.1,2.91-.3,7.81-1.62,9.63-7.68,9.5-10.66-.03-.77-.7-1.38-1.46-1.34Z"/>
        <path class="empty_todo-cls-2" d="M123.55,79.95c-2.8-3.3-6.69-4.65-10.41-3.61-3.05.85-5.37,3.15-5.78,5.72-.24,1.51.09,3.8,1.73,5.71,1.18,1.38,3.49,3.01,7.75,3.01.04,0,.07,0,.11,0,4.79-.03,6.66-2.53,7.34-4.01,1.03-2.23.72-5.1-.74-6.81Z"/>
        <path class="empty_todo-cls-2" d="M60.37,82.43h0c-.88-4.34-5.63-5.56-7.42-6.02-2.39-.61-6.04-.44-8.4,1.39-1.46,1.13-2.23,2.74-2.24,4.66,0,4.71,3.02,7.28,9,7.65.25.02.49.02.74.02,2.85,0,5.42-1.03,6.98-2.82,1.21-1.39,1.69-3.13,1.33-4.89Z"/>
        <path class="empty_todo-cls-11" d="M54.84,173c-.52,0-1.02-.29-1.27-.79-.34-.7-.05-1.54.65-1.88,4.12-2,2.84-8.54,2.83-8.61-.16-.76.34-1.5,1.1-1.66.76-.16,1.5.34,1.66,1.1.07.36,1.71,8.76-4.36,11.7-.2.1-.41.14-.61.14Z"/>
        <path class="empty_todo-cls-5" d="M120.11,123.38c-.2-1.13-1.38-1.38-1.82-1.48-10.67-2.3-26.42-3.75-39.17-3.6-16.54.19-43.14,5.14-47.44,8.83-2.54,2.18-3.47,7.71-3.07,12.04.23,2.49.92,10.05,7.31,10.87.89.11,2.95.64,5.56,1.31,8.09,2.06,21.63,5.52,33.17,5.52,3.18,0,6.22-.26,8.94-.89,14.44-3.33,19.98-11.68,25.84-20.53.89-1.34,1.81-2.74,2.77-4.11,2.09-3.01,4.57-4.57,6.05-5.5,1.15-.72,2.06-1.3,1.86-2.45Z"/>
        <path class="empty_todo-cls-3" d="M151.4,107.56c-5.23-3.71-12.04-4.17-18.21-1.25-8.7,4.12-13.49,14.11-14.19,15.65-1.69,2.09-6.57,8.35-6.57,11.18,0,.72.54,1.3,1.23,1.39l-2.42,19.52c-.27.05-.42.08-.43.09-.76.14-1.27.87-1.13,1.63.12.68.71,1.15,1.38,1.15.08,0,.17,0,.25-.02.65-.12,16.12-3,27.98-10.7,9.92-6.44,17.98-16.75,18.74-23.97.61-5.81-1.87-11.3-6.63-14.68Z"/>
        <path class="empty_todo-cls-7" d="M165.71,132.72l-23.13-89.03c-.2-.75-.96-1.2-1.71-1.01l-20.59,5.35c-.36.09-.67.33-.86.65-.19.32-.24.7-.15,1.07l23.13,89.03c.16.63.73,1.05,1.36,1.05.12,0,.24-.01.35-.05l20.59-5.35c.36-.09.67-.33.86-.65.19-.32.24-.7.15-1.07Z"/>
        <path class="empty_todo-cls-9" d="M167.1,138.07l-3.04-11.71c-.12-.45-.45-.81-.89-.97-.44-.16-.93-.09-1.3.19l-8.78,6.43-10.8-1.34c-.47-.06-.92.12-1.23.47-.31.35-.42.83-.3,1.28l3.04,11.71c.14.56.62.97,1.19,1.04l11.36,1.41c.06,0,.12.01.17.01.3,0,.59-.09.83-.27l9.23-6.76c.46-.34.67-.93.53-1.49Z"/>
        <path class="empty_todo-cls-1" d="M142.41,42.18l-17.53-24.06c-.34-.47-.93-.68-1.49-.53-.56.15-.97.62-1.04,1.19l-3.6,29.54c-.05.37.06.75.29,1.04.23.29.57.48.95.52l11.79,1.3c.05,0,.1,0,.15,0,.3,0,.59-.09.83-.27l9.33-6.79c.3-.22.5-.55.56-.92.06-.37-.03-.74-.25-1.05Z"/>
        <path class="empty_todo-cls-4" d="M131.17,26.72l-6.29-8.6c-.34-.47-.93-.68-1.49-.53-.56.14-.97.62-1.04,1.19l-1.31,10.58c-.05.38.06.76.3,1.06.24.3.59.48.97.52l4.17.37s.08,0,.12,0c.28,0,.56-.09.79-.25l3.43-2.35c.31-.21.53-.55.59-.92s-.03-.76-.25-1.07Z"/>
        <path class="empty_todo-cls-3" d="M145.36,114.46c-3.69-6.28-13.17-4.14-13.57-4.05-.75.18-1.22.93-1.05,1.69.18.76.93,1.23,1.69,1.05,0,0,.01,0,.02,0l3.33,13.46c-.1.04-.16.07-.17.07-.72.28-1.08,1.1-.8,1.82.22.55.75.89,1.31.89.17,0,.34-.03.51-.1.31-.12,7.71-3.06,9.53-8.31.75-2.15.47-4.35-.81-6.52Z"/>
      </g>
    </g>
  </g>
</svg>