<?xml version="1.0" encoding="UTF-8"?>
<svg xmlns="http://www.w3.org/2000/svg" version="1.1" viewBox="0 0 530 400">
  <defs>
    <style>
      .empty_diary-cls-1 {
        fill: #f4efca;
      }

      .empty_diary-cls-2 {
        fill: #fff;
      }

      .empty_diary-cls-3 {
        fill: #58532e;
      }

      .empty_diary-cls-4 {
        fill: #d1cca7;
      }

      .empty_diary-cls-5 {
        fill: #b4af8a;
      }

      .empty_diary-cls-6 {
        fill: #b5b08b;
      }
    </style>
  </defs>
  <!-- Generator: Adobe Illustrator 28.7.3, SVG Export Plug-In . SVG Version: 1.2.0 Build 164)  -->
  <g>
    <g id="_레이어_1" data-name="레이어_1">
      <g>
        <path class="empty_diary-cls-5" d="M80.14,260.65c-1.01-1.62-3.15-2.11-4.77-1.1-.07.04-.14.08-.21.13l-14.39-19.79c1.18-.86,1.74-2.39,1.27-3.85-.59-1.82-2.54-2.82-4.36-2.23-6.49,2.09-24.61,7.52-30.47,7.52-1.27,0-2.43.69-3.04,1.8s-.56,2.46.12,3.53l19.23,30c.64,1,1.74,1.59,2.91,1.59.07,0,.14,0,.22,0,.54-.03,13.4-.96,32.38-12.83,1.62-1.01,2.11-3.15,1.1-4.77Z"/>
        <path class="empty_diary-cls-5" d="M122.05,301.57c-1.22-1.47-3.4-1.68-4.87-.47-.06.05-.13.1-.19.15l-16.85-17.74c1.05-1,1.41-2.59.75-3.98-.82-1.73-2.88-2.46-4.61-1.64-6.16,2.92-23.42,10.67-29.23,11.44-1.26.16-2.32,1-2.78,2.18-.46,1.18-.23,2.51.58,3.48l22.98,27.23c.66.79,1.64,1.23,2.64,1.23.22,0,.44-.02.66-.06.53-.1,13.16-2.7,30.44-16.94,1.48-1.22,1.68-3.4.47-4.87Z"/>
        <path class="empty_diary-cls-6" d="M517.78,285.48c-56.29-10.37-112.52-97.57-113.08-98.45-1.03-1.61-3.16-2.08-4.78-1.06-.3.19-.55.43-.76.69L202.54,19.85c-.24-2.16-.35-3.4-.36-3.53-.16-1.9-1.86-3.32-3.74-3.16-1.9.16-3.32,1.84-3.16,3.74.04.41,3.66,41.68,18.01,89.91,13.32,44.74,38.86,104.86,84.97,137.21,61.27,43,143.27,49.56,187.6,49.56,19.14,0,31.26-1.22,31.66-1.27,1.71-.18,3.03-1.59,3.09-3.31.06-1.72-1.14-3.22-2.83-3.53Z"/>
        <path class="empty_diary-cls-1" d="M517.56,294.31c-.4-1.05-1.29-1.84-2.39-2.12-.7-.18-70.26-18.5-112.64-99.27-.2-.39-.48-.74-.82-1.02L200.47,19.88c-.86-.74-2.03-1-3.13-.72-1.1.29-1.98,1.09-2.37,2.16-.39,1.08-40.91,108-172.3,145.54-.91.26-1.67.88-2.11,1.71-.44.83-.52,1.81-.22,2.71.49,1.49,12.49,37.02,46.39,81.48,31.23,40.97,87.72,97.29,179.46,132.94.4.16.83.23,1.25.23.18,0,.37-.01.55-.04.37-.06,37.85-6.13,84.25-16.37,2.75-.61,5.26-2.15,7.68-3.63,1.97-1.21,4.01-2.46,5.72-2.85,3.57-.82,6.39-.98,9.38-1.14,3.3-.18,6.7-.37,11.16-1.43,59.1-14.14,133.27-36.54,151.03-62.97.63-.93.76-2.12.36-3.17Z"/>
        <path class="empty_diary-cls-4" d="M404.02,186.26L200.97,13.97c-.79-.67-1.85-.95-2.87-.76-1.02.19-1.91.83-2.41,1.74-.7,1.29-71.74,128.96-182.62,146.95-1.01.16-1.9.77-2.42,1.65-.52.88-.63,1.95-.29,2.92.16.45,16.36,45.67,52.97,95.12,33.85,45.73,92.6,104.62,180.23,125.52.27.06.53.09.8.09.64,0,1.27-.18,1.82-.52.36-.22,36.63-22.77,74.07-58.05,34.74-32.73,77.68-83.46,84.96-139.3.15-1.17-.3-2.33-1.19-3.09Z"/>
        <path class="empty_diary-cls-2" d="M167.68,166.41c-17.72-17.45-40.73-19.39-58.62-4.96-14.53,11.73-17.07,24.36-16.64,32.89.74,14.58,10.42,27.21,19.7,33.26,6.31,4.12,13.7,6.11,21.2,6.11,11.22,0,22.69-4.47,31.13-12.97,8.39-8.45,13.36-19.98,13.29-30.83-.05-8.95-3.53-17.08-10.06-23.51Z"/>
        <path class="empty_diary-cls-3" d="M148.66,174.14c-3.75-3.78-9.11-5.77-15.11-5.59-6.22.18-12.38,2.71-15.7,6.46-8.88,10.02-9.27,21.84-.99,30.1,4.13,4.11,9.68,6.45,15.3,6.45.14,0,.28,0,.42,0,5.76-.12,11.24-2.69,15.44-7.24,9.09-9.85,9.33-21.41.63-30.17Z"/>
        <path class="empty_diary-cls-2" d="M240.19,106.27c-9.26-10.71-21.54-17.11-33.69-17.58-11.15-.42-21.73,4.03-30.65,12.88-8.94,8.86-13.35,18.5-13.12,28.63.34,14.79,10.39,26.05,16.35,31.44,6.61,5.98,15.41,8.88,24.49,8.88,11.72,0,23.91-4.83,32.48-14.1,14.91-16.13,16.53-35.82,4.13-50.15Z"/>
        <path class="empty_diary-cls-3" d="M215.68,110.48c-3.74-3.54-8.6-5.22-14.01-4.9-6.43.4-13.34,3.81-17.22,8.51-7.84,9.5-5.5,21.36.86,28.17,3.59,3.84,9.84,6.28,16.02,6.28.14,0,.28,0,.42,0,6.2-.11,11.74-2.63,15.62-7.08,8.77-10.09,8.14-21.66-1.68-30.97Z"/>
        <path class="empty_diary-cls-3" d="M232.52,164.23c-1.22-1.47-3.38-1.67-4.86-.46-1.47,1.21-1.68,3.39-.48,4.87.16.2,3.89,4.85,1.13,7.53-3.08,3-5,2.63-7.22,2.2-1.71-.33-4.06-.78-6.17.88-2.12,1.66-2.2,4.23-2.25,6.11-.08,2.73-.13,4.53-3.76,6.03-6.18,2.55-9.28-2.22-9.83-3.18-.91-1.68-3.02-2.3-4.69-1.38-1.68.91-2.3,3.02-1.38,4.69,1.66,3.04,6.01,7.55,12.44,7.55,1.87,0,3.91-.38,6.11-1.29,7.78-3.2,7.95-9.07,8.04-12.23,0-.13,0-.28.01-.43.06.01.12.02.18.04,2.69.52,7.7,1.48,13.36-4.05,5.86-5.71,2.15-13.55-.63-16.9Z"/>
        <path class="empty_diary-cls-3" d="M405.55,341.54c-.42-1.15-1.42-1.99-2.62-2.22l-55.38-10.26c-1.17-.21-2.37.18-3.17,1.06-.24.26-24.57,26.54-41.5,38.49-1.09.77-1.64,2.1-1.42,3.41.23,1.32,1.19,2.38,2.47,2.75,1.65.47,40.74,11.41,65.55,11.41,1.04,0,2.02-.46,2.68-1.27l32.82-39.99c.78-.95,1-2.23.58-3.38Z"/>
        <path class="empty_diary-cls-3" d="M438.51,277.14l-34.87-32.82c-.9-.84-2.17-1.15-3.35-.8-1.18.35-2.09,1.29-2.38,2.48-5.9,23.62-28.9,53.81-29.13,54.11-.58.76-.83,1.73-.67,2.68.16.95.71,1.79,1.51,2.31l38.97,25.64c.59.38,1.25.57,1.9.57,1.08,0,2.13-.5,2.81-1.43,13.42-18.57,25.52-47.67,26.03-48.9.55-1.33.22-2.86-.82-3.84Z"/>
      </g>
    </g>
  </g>
</svg>