<svg width="170" height="202" viewBox="0 0 170 202" fill="none" xmlns="http://www.w3.org/2000/svg">
<path d="M37.5413 131.486C40.2278 134.498 39.376 141.88 36.4419 148.372C30.6466 161.186 14.433 162.603 12.4527 161.492C9.86808 160.047 11.3751 146.614 18.2916 138.698C24.8586 131.18 34.7092 128.311 37.534 131.486H37.5413Z" fill="#5AB082"/>
<path d="M14.593 163.243C13.3335 163.243 12.3215 163.08 11.7245 162.745C10.8363 162.247 10.2466 161.222 9.97719 159.698C9.15449 155.049 11.244 144.563 17.1776 137.765C21.7862 132.49 28.6444 128.795 33.85 128.774C33.8645 128.774 33.8791 128.774 33.9009 128.774C35.9759 128.774 37.6213 129.386 38.6551 130.547C42.0551 134.369 40.5917 142.77 37.796 148.956C34.1193 157.093 26.6204 160.538 22.4778 161.869C19.6967 162.766 16.7772 163.243 14.593 163.243ZM13.2097 160.246C15.0663 160.802 29.7802 159.549 35.0949 147.788C37.9271 141.524 38.5168 134.775 36.4273 132.433C35.9759 131.928 35.0804 131.65 33.9009 131.65C33.8864 131.65 33.8791 131.65 33.8645 131.65C30.1369 131.664 23.9776 134.412 19.42 139.63C13.0568 146.913 11.8628 158.637 13.2097 160.239V160.246Z" fill="#5AB082"/>
<path d="M119.476 118.48C115.603 114.536 48.615 111.503 43.4968 121.662C38.3787 131.82 33.4133 150.379 33.4133 150.379C33.4133 150.379 27.5962 161.015 33.741 169.643C38.8082 176.754 48.0981 176.107 51.7238 175.537C51.5345 179.31 50.6026 199.328 52.0806 199.905C53.7187 200.545 75.9897 197.983 75.9897 197.983L76.3028 175.637L80.3945 175.729L82.2146 197.662C82.2146 197.662 106.612 200.061 108.25 199.421C109.713 198.851 108.279 178.897 107.966 174.69C107.929 174.192 107.907 173.907 107.907 173.907C107.907 173.907 110.121 155.797 112.269 148.001C116.557 132.454 122.068 121.107 119.483 118.48H119.476Z" fill="#E1CCBB"/>
<path d="M53.493 201.414C52.5247 201.414 51.8404 201.364 51.5418 201.243C50.4425 200.816 49.081 200.282 50.1731 177.182C45.5136 177.616 37.3594 177.232 32.5397 170.469C26.3003 161.705 31.2802 151.319 32.0374 149.86C32.5616 147.916 37.2502 130.824 42.1791 121.029C43.6134 118.181 48.4258 116.166 56.8857 114.885C76.2664 111.945 116.724 113.596 120.546 117.483C122.876 119.854 121.158 125.029 118.035 134.426C116.666 138.548 115.115 143.211 113.688 148.379C111.686 155.619 109.597 172.206 109.385 173.936C109.4 174.078 109.415 174.306 109.436 174.605C111.344 199.777 109.99 200.304 108.803 200.774C107.172 201.414 93.3684 200.218 82.069 199.108C81.3628 199.037 80.8022 198.481 80.7512 197.791L79.0403 177.153L77.7662 177.125L77.475 198.019C77.4677 198.745 76.9071 199.343 76.1718 199.428C67.7555 200.396 57.7812 201.429 53.5003 201.429L53.493 201.414ZM53.0708 198.574C55.7063 198.631 65.4112 197.734 74.541 196.702L74.8395 175.616C74.8395 175.231 75.0069 174.861 75.2909 174.598C75.5748 174.327 75.9607 174.185 76.3465 174.192L80.4382 174.284C81.1953 174.299 81.8142 174.875 81.8724 175.609L83.5906 196.346C93.5722 197.314 104.384 198.168 107.245 198.09C107.667 195.605 107.376 186.394 106.502 174.79C106.473 174.313 106.444 174.035 106.444 174.028C106.437 173.929 106.437 173.829 106.444 173.729C106.532 172.989 108.694 155.427 110.849 147.617C112.29 142.385 113.856 137.679 115.232 133.529C117.234 127.485 119.513 120.644 118.428 119.484C115.428 117.113 74.5337 114.009 53.6459 118.38C46.977 119.776 45.2588 121.427 44.8219 122.289C39.8275 132.198 34.8913 150.55 34.8404 150.735C34.8112 150.842 34.7676 150.949 34.7166 151.049C34.6656 151.148 29.4091 161.029 34.9569 168.81C39.5217 175.224 48.0399 174.648 51.4909 174.106C51.9277 174.035 52.3791 174.163 52.7067 174.455C53.0416 174.747 53.2164 175.167 53.1945 175.601C52.6194 187.056 52.5757 196.146 53.0635 198.567L53.0708 198.574Z" fill="#E1CCBB"/>
<path d="M140.881 127.35C154.219 122.495 162.897 109.61 156.075 96.5682C149.311 83.6476 139.199 84.8649 139.199 84.8649C143.101 84.4947 165.685 85.6551 164.448 58.9666C163.865 46.4162 150.637 36.5423 140.262 34.8908C123.801 32.2639 118.297 38.8702 118.297 38.8702C118.297 38.8702 130.55 30.9327 115.603 12.8794C102.425 -3.03831 70.9441 -1.67862 56.8345 12.8794C45.5206 24.5542 50.8572 37.7169 50.8572 37.7169C50.8572 37.7169 27.9964 18.6456 8.76859 40.4791C-6.44039 57.7493 4.48765 79.4688 20.8688 81.455C20.8688 81.455 3.1262 87.3351 4.81527 106.051C6.21313 121.513 20.1699 129.706 32.0298 129.023C45.4696 128.247 50.7116 124.552 50.7116 124.552C50.7116 124.552 50.3912 134.348 63.4233 141.837C78.4649 150.479 90.7325 146.77 99.3963 141.381C109.633 135.01 111.183 123.036 111.183 123.036C111.183 123.036 120.189 134.882 140.881 127.357V127.35Z" fill="#FFD98E"/>
<path d="M81.2021 148.415C75.0719 148.415 68.8835 146.635 62.6805 143.069C52.7935 137.388 50.1726 130.404 49.4809 126.831C46.7653 128.062 41.2612 129.92 32.1169 130.447C19.1139 131.194 4.80773 122.317 3.35163 106.165C2.09938 92.2829 11.0617 85.0146 16.4711 81.9322C9.94049 79.7823 4.51651 74.6211 1.80088 67.7372C-1.93402 58.2692 0.199172 47.9896 7.65441 39.5253C23.1837 21.892 41.1375 29.8153 48.4544 34.293C47.6098 29.2671 47.6535 20.2476 55.764 11.8829C63.3357 4.07359 76.1858 -0.461098 89.2689 0.0372199C100.816 0.478587 110.834 4.82819 116.746 11.9684C122.679 19.1299 125.227 25.6792 124.325 31.4312C124.164 32.4421 123.91 33.3604 123.589 34.1862C127.273 32.976 132.741 32.2285 140.502 33.4672C152.049 35.311 165.328 46.2099 165.918 58.9028C166.435 69.9512 163.064 77.7961 155.907 82.224C153.184 83.9112 150.272 84.8651 147.629 85.4204C150.84 87.1289 154.422 90.2541 157.385 95.9135C160.356 101.594 160.742 107.596 158.485 113.269C155.805 120.011 149.413 125.784 141.39 128.696C125.293 134.555 115.916 129.215 112.057 125.962C110.95 130.063 107.922 137.779 100.19 142.585C93.9502 146.471 87.6016 148.408 81.2021 148.408V148.415ZM50.7113 123.107C50.9516 123.107 51.1918 123.164 51.4103 123.278C51.898 123.535 52.2038 124.047 52.1893 124.588C52.182 124.951 52.131 133.665 64.1803 140.584C75.8218 147.276 87.4124 147.133 98.6171 140.157C108.118 134.241 109.72 122.958 109.734 122.844C109.814 122.26 110.244 121.783 110.826 121.634C111.409 121.484 112.02 121.698 112.384 122.168C112.727 122.609 121.07 133.024 140.385 125.998C147.629 123.364 153.374 118.21 155.762 112.223C157.706 107.339 157.363 102.157 154.786 97.2234C149.005 86.175 140.764 86.2106 139.555 86.2818C139.49 86.2818 139.424 86.2889 139.366 86.296C138.565 86.3672 137.844 85.8048 137.757 85.0217C137.67 84.2387 138.238 83.5268 139.038 83.4342C139.075 83.4342 139.184 83.42 139.359 83.4058C139.635 83.3844 139.97 83.3702 140.363 83.3488C146.224 83.0712 164.076 82.224 162.991 59.0309C162.467 47.712 150.476 37.9734 140.043 36.3147C128.642 34.4994 122.81 37.3043 120.568 38.8633C119.789 39.6321 119.192 40.0308 119.134 40.0735C118.529 40.465 117.714 40.3654 117.226 39.8386C116.738 39.3118 116.716 38.5145 117.175 37.9592C117.241 37.8809 117.714 37.3327 118.689 36.6208C119.687 35.5673 121.019 33.695 121.441 30.9329C122.184 26.028 119.84 20.2618 114.481 13.7837C109.101 7.2913 99.8839 3.32612 89.1815 2.92034C76.9139 2.4505 64.9302 6.64349 57.9263 13.8691C47.4278 24.6968 52.0509 36.6778 52.2475 37.1832C52.495 37.7955 52.2839 38.5002 51.7306 38.8846C51.1773 39.2691 50.4347 39.2406 49.9177 38.8063C49.0295 38.066 27.9233 20.9452 9.90409 41.4118C3.18418 49.0432 1.233 58.2692 4.56748 66.7121C7.45784 74.0374 13.7773 79.1416 21.0651 80.0243C21.7495 80.1097 22.2809 80.6365 22.3465 81.3057C22.4193 81.9749 22.0043 82.6013 21.3563 82.8149C20.6792 83.0427 4.73493 88.5883 6.30024 105.923C7.60345 120.331 20.3589 128.24 31.9567 127.578C44.6831 126.845 49.8231 123.406 49.8741 123.371C50.1289 123.193 50.4274 123.107 50.7259 123.107H50.7113Z" fill="#FFD98E"/>
<path d="M127.353 133.457C126.167 133.735 123.567 144.84 131.278 153.532C138.988 162.225 151.386 162.936 151.983 162.794C152.58 162.652 157.138 148.386 144.725 138.925C133.884 130.66 127.353 133.457 127.353 133.457Z" fill="#5AB082"/>
<path d="M151.838 164.225C149.224 164.225 137.648 162.908 130.164 154.473C123.218 146.649 124.216 137.245 125.191 134.284C125.475 133.415 125.919 132.397 126.866 132.091C127.834 131.728 134.838 129.557 145.628 137.786C156.519 146.087 154.976 157.519 154.24 160.822C153.607 163.67 152.974 164.04 152.318 164.197C152.238 164.218 152.078 164.225 151.831 164.225H151.838ZM128.162 134.711C127.361 136.369 125.919 145.303 132.384 152.586C138.762 159.776 148.285 161.093 151.03 161.321C151.801 158.673 154.08 147.888 143.815 140.064C135.042 133.372 129.363 134.383 128.162 134.711ZM127.805 134.832C127.769 134.846 127.732 134.853 127.696 134.86C127.732 134.853 127.769 134.839 127.805 134.832Z" fill="#5AB082"/>
<path d="M102.505 68.3778C100.387 66.4272 96.5354 66.5981 94.9992 70.129C93.463 73.6599 95.6618 76.3936 99.251 76.4007C102.84 76.4078 106.524 72.0796 102.498 68.3778H102.505Z" fill="#495163"/>
<path d="M99.2656 77.8456H99.251C96.9503 77.8456 95.0065 76.9131 93.9144 75.2971C92.8296 73.6882 92.7349 71.6594 93.645 69.5665C94.5187 67.5589 96.0985 66.2277 98.0788 65.822C100.023 65.4233 102.054 65.9857 103.51 67.3311C105.578 69.2319 106.24 71.6024 105.33 73.8377C104.384 76.1585 101.836 77.8456 99.2583 77.8456H99.2656ZM99.2947 68.5769C99.0908 68.5769 98.8797 68.5983 98.6831 68.641C97.9623 68.7905 96.9795 69.2603 96.3534 70.6983C95.8437 71.8658 95.851 72.9408 96.3752 73.7096C96.9139 74.4998 97.9623 74.9625 99.2583 74.9625C100.627 74.9625 102.09 74.0015 102.593 72.7699C103.044 71.6665 102.658 70.5061 101.493 69.4312C100.896 68.883 100.096 68.5841 99.2947 68.5841V68.5769Z" fill="#495163"/>
<path d="M67.7555 68.0934C66.0155 66.4347 61.9748 66.6696 60.5114 70.2788C59.3902 73.0409 61.3705 76.579 65.2947 76.4081C69.2189 76.2373 70.26 70.4782 67.7555 68.0934Z" fill="#495163"/>
<path d="M65.0253 77.8601C62.8994 77.8601 61.0283 76.956 59.8634 75.3543C58.6767 73.7241 58.4001 71.5813 59.1427 69.7518C59.9872 67.6731 61.669 66.228 63.7585 65.7937C65.6369 65.4022 67.5589 65.8934 68.7893 67.0609C70.5585 68.7552 71.0973 71.7237 70.0926 74.2794C69.2553 76.4221 67.4861 77.7533 65.3602 77.8459C65.251 77.8459 65.1345 77.853 65.0253 77.853V77.8601ZM65.0326 68.5487C64.8142 68.5487 64.5885 68.5701 64.3701 68.6199C63.7221 68.7552 62.5281 69.2179 61.8801 70.8196C61.5016 71.7451 61.6472 72.8485 62.2587 73.6885C62.9067 74.5784 63.9624 75.034 65.2292 74.977C66.5033 74.9201 67.1003 73.8807 67.3405 73.2614C67.9084 71.8163 67.639 70.001 66.729 69.1325C66.3431 68.7623 65.7097 68.5558 65.0326 68.5558V68.5487Z" fill="#495163"/>
<path d="M81.3409 95.5291C78.0647 95.5291 74.9923 94.447 72.7499 92.4395C70.3765 90.311 69.2334 87.3425 69.5974 84.3027C69.6921 83.5125 70.4274 82.9501 71.2356 83.0427C72.0437 83.1352 72.6189 83.8542 72.5242 84.6444C72.2621 86.7872 73.0484 88.8018 74.7375 90.3181C76.9653 92.3185 80.3435 93.0945 83.7799 92.3968C91.5118 90.8307 91.4026 84.6587 91.3953 84.4024C91.3734 83.6122 92.0068 82.943 92.815 82.9145C93.6086 82.879 94.3075 83.4983 94.3439 84.2885C94.4749 87.3425 92.5674 93.5643 84.3769 95.223C83.3503 95.4294 82.3311 95.5291 81.3263 95.5291H81.3409Z" fill="#495163"/>
<path d="M123.168 80.9494C125.221 83.32 124.798 89.6273 117.358 89.6771C109.917 89.7269 108.381 84.7936 108.774 82.4017C109.466 78.1233 117.511 74.4144 123.168 80.9494Z" fill="#FFC66C"/>
<path d="M117.256 91.1151C112.785 91.1151 110.368 89.4421 109.123 88.0255C107.405 86.0678 107.063 83.7186 107.31 82.1738C107.74 79.5399 110.172 77.1906 113.368 76.315C117.27 75.2472 121.354 76.6354 124.289 80.0168C125.81 81.7752 126.138 84.7152 125.06 87.0004C124.347 88.5238 122.396 91.0795 117.365 91.1151C117.328 91.1151 117.292 91.1151 117.256 91.1151ZM116.003 78.8422C115.392 78.8422 114.773 78.9276 114.161 79.0914C112.123 79.6466 110.463 81.1345 110.223 82.6294C110.07 83.5691 110.361 85.0142 111.358 86.1532C112.56 87.5201 114.598 88.2391 117.256 88.2391C117.285 88.2391 117.314 88.2391 117.35 88.2391C119.906 88.2248 121.646 87.3848 122.388 85.8044C123.058 84.3735 122.745 82.6864 122.046 81.8819C120.328 79.8958 118.202 78.8422 116.011 78.8422H116.003Z" fill="#FFC66C"/>
<path d="M56.609 82.8363C57.3516 86.4313 53.5002 89.2788 48.6514 88.994C44.3632 88.7378 40.5919 87.4279 40.5991 82.5942C40.5991 77.7605 46.642 76.9632 49.9109 77.7819C51.7965 78.2517 55.8882 79.3552 56.609 82.8434V82.8363Z" fill="#FFC66C"/>
<path d="M49.3286 90.4533C49.0738 90.4533 48.819 90.4461 48.5569 90.4319C42.2884 90.0546 39.1141 87.4206 39.1214 82.587C39.1214 80.6222 39.9368 78.9706 41.4657 77.8102C43.941 75.9309 47.7633 75.7529 50.2751 76.3794C52.1535 76.8492 57.1333 78.095 58.0507 82.5514C58.422 84.3524 57.9269 86.1321 56.6528 87.563C55.0147 89.3997 52.3209 90.4533 49.3286 90.4533ZM47.4648 78.935C45.9577 78.935 44.3488 79.2767 43.2785 80.0883C42.4704 80.7005 42.0772 81.5191 42.0772 82.5941C42.0772 84.9646 42.8781 87.2071 48.7462 87.5559C51.0978 87.6983 53.2747 86.9793 54.4395 85.6694C55.1166 84.9077 55.3642 84.0534 55.1676 83.1209C54.6798 80.7432 51.9059 79.7608 49.547 79.1699C48.9355 79.0133 48.2147 78.935 47.4648 78.935Z" fill="#FFC66C"/>
<path d="M52.248 175.409C51.7019 175.409 51.1777 175.11 50.9229 174.598C50.5662 173.879 50.8719 173.018 51.6073 172.676C55.9319 170.626 54.585 163.92 54.5704 163.856C54.4103 163.073 54.9199 162.318 55.7208 162.154C56.5216 161.998 57.2933 162.496 57.4608 163.279C57.5336 163.642 59.2518 172.256 52.8959 175.274C52.6921 175.374 52.4736 175.417 52.2552 175.417L52.248 175.409Z" fill="#BEA18B"/>
<path d="M82.0618 156.545C65.6661 160.246 37.3376 151.028 32.598 150.43C28.368 149.903 26.7227 146.016 26.213 140.584C25.8199 136.441 26.7518 131.287 28.9214 129.472C32.7728 126.24 59.2811 120.979 77.7226 120.773C91.1406 120.623 107.42 122.104 118.464 124.432C121.34 125.037 115.516 125.77 111.184 131.864C103.648 142.464 98.887 152.743 82.0618 156.545Z" fill="#BE9C73"/>
<path d="M73.0193 158.865C60.9191 158.865 46.7148 155.32 38.2403 153.206C35.5028 152.522 33.3405 151.981 32.4086 151.867C25.7106 151.027 24.9825 143.275 24.7422 140.726C24.3273 136.284 25.2956 130.618 27.9602 128.389C32.4741 124.609 60.3658 119.534 77.7006 119.341C91.0749 119.192 107.58 120.68 118.77 123.036C119.236 123.136 120.466 123.392 120.677 124.552C120.889 125.734 119.935 126.318 118.734 127.065C117.183 128.019 114.584 129.621 112.392 132.703C111.388 134.113 110.419 135.544 109.487 136.918C103.335 145.98 97.5327 154.544 82.3893 157.961C79.5353 158.609 76.3538 158.872 73.012 158.872L73.0193 158.865ZM81.734 155.142C95.7272 151.981 100.969 144.257 107.034 135.316C107.98 133.928 108.956 132.483 109.975 131.052C111.955 128.261 114.242 126.51 115.923 125.399C105.039 123.342 90.0484 122.082 77.737 122.217C59.0771 122.424 33.1876 127.799 29.8823 130.575C28.3097 131.892 27.2977 136.419 27.6763 140.463C28.3461 147.56 30.7559 148.756 32.7799 149.013C33.8938 149.155 36.0197 149.682 38.9684 150.422C49.5396 153.063 69.2261 157.975 81.734 155.156V155.142Z" fill="#BE9C73"/>
<path d="M111.184 157.491C111.184 157.491 127.645 154.558 139.985 146.735C150.112 140.306 158.23 130.098 158.966 123.214C160.261 111.19 147.317 102.648 135.02 108.343C125.73 112.65 120.779 123.848 120.779 123.848C120.779 123.848 114.089 131.863 114.089 134.554" fill="#E1CCBB"/>
<path d="M111.184 158.936C110.485 158.936 109.866 158.452 109.735 157.755C109.589 156.971 110.121 156.224 110.921 156.082C111.082 156.053 127.244 153.106 139.184 145.531C148.758 139.459 156.803 129.592 157.502 123.072C158.034 118.16 155.893 113.525 151.78 110.678C147.178 107.489 141.15 107.104 135.653 109.653C126.99 113.668 122.184 124.317 122.141 124.424C122.09 124.545 122.017 124.659 121.93 124.766C118.864 128.446 115.574 133.259 115.574 134.561C115.574 135.359 114.911 135.999 114.103 135.999C113.295 135.999 112.632 135.352 112.632 134.561C112.632 131.664 117.751 125.236 119.527 123.093C120.255 121.52 125.279 111.276 134.401 107.047C140.873 104.05 148.016 104.527 153.498 108.321C158.492 111.781 161.084 117.405 160.443 123.371C159.643 130.781 151.197 141.346 140.793 147.945C128.351 155.84 112.137 158.787 111.46 158.908C111.373 158.922 111.285 158.929 111.198 158.929L111.184 158.936Z" fill="#E1CCBB"/>
<path d="M142.809 43.2134L121.218 48.6968L145.464 139.971L167.055 134.488L142.809 43.2134Z" fill="#FC9D35"/>
<path d="M145.475 141.403C144.819 141.403 144.222 140.976 144.048 140.321L119.796 49.0432C119.702 48.673 119.753 48.2815 119.949 47.954C120.146 47.6265 120.473 47.3845 120.852 47.292L142.446 41.8105C143.232 41.6111 144.04 42.0739 144.244 42.8427L168.496 134.12C168.59 134.49 168.539 134.882 168.343 135.209C168.146 135.537 167.819 135.779 167.44 135.871L145.846 141.353C145.722 141.381 145.599 141.403 145.475 141.403ZM123.022 49.7195L146.53 138.206L165.27 133.444L141.762 44.957L123.022 49.7195Z" fill="#FC9D35"/>
<path d="M168.518 139.965L158.842 146.898L146.931 145.446L143.742 133.444L155.653 134.889L165.329 127.955L168.518 139.965Z" fill="#D63A3A"/>
<path d="M158.842 148.336C158.784 148.336 158.718 148.336 158.66 148.322L146.749 146.87C146.152 146.798 145.657 146.371 145.504 145.802L142.315 133.799C142.191 133.337 142.315 132.846 142.635 132.49C142.956 132.134 143.436 131.949 143.924 132.013L155.253 133.394L164.462 126.802C164.856 126.517 165.365 126.446 165.831 126.609C166.29 126.773 166.639 127.143 166.763 127.606L169.952 139.608C170.105 140.178 169.886 140.783 169.399 141.132L159.715 148.066C159.461 148.251 159.155 148.343 158.842 148.343V148.336ZM148.103 144.136L158.441 145.396L166.843 139.381L164.448 130.375L156.519 136.056C156.214 136.277 155.835 136.369 155.464 136.327L145.708 135.138L148.103 144.143V144.136Z" fill="#D63A3A"/>
<path d="M124.492 17.478L120.721 47.7686L133.083 49.0998L142.868 42.1376L124.492 17.478Z" fill="#FFECBB"/>
<path d="M133.083 50.5377C133.032 50.5377 132.974 50.5378 132.923 50.5306L120.561 49.1994C120.168 49.1567 119.811 48.9645 119.563 48.6584C119.316 48.3594 119.207 47.975 119.258 47.5906L123.036 17.3C123.109 16.7091 123.546 16.2321 124.128 16.0827C124.711 15.9332 125.337 16.1467 125.686 16.6308L144.062 41.2904C144.295 41.5965 144.39 41.988 144.324 42.3653C144.266 42.7426 144.048 43.0843 143.735 43.305L133.95 50.2672C133.695 50.4452 133.396 50.5449 133.083 50.5449V50.5377ZM122.359 46.4943L132.676 47.6048L140.808 41.8243L125.504 21.2794L122.359 46.4943Z" fill="#FFECBB"/>
<path d="M124.493 17.478L123.124 28.32L127.492 28.7044L131.089 26.2982L124.493 17.478Z" fill="#3F3F3F"/>
<path d="M127.492 30.1426C127.448 30.1426 127.405 30.1426 127.361 30.1426L122.993 29.7582C122.592 29.7226 122.228 29.5304 121.974 29.2314C121.726 28.9253 121.609 28.5337 121.66 28.1493L123.029 17.3074C123.102 16.7236 123.539 16.2395 124.121 16.09C124.704 15.9405 125.323 16.1541 125.679 16.6311L132.275 25.4513C132.508 25.7645 132.603 26.1632 132.538 26.5476C132.472 26.932 132.246 27.2737 131.919 27.4944L128.322 29.9006C128.075 30.0643 127.783 30.1497 127.492 30.1497V30.1426ZM124.769 27.0174L127.092 27.2168L128.999 25.9425L125.497 21.2583L124.769 27.0103V27.0174Z" fill="#3F3F3F"/>
<path d="M133.273 112.643C133.273 112.643 142.526 110.528 145.89 116.124C150.746 124.189 137.474 129.251 137.474 129.251" fill="#E1CCBB"/>
<path d="M137.481 130.696C136.891 130.696 136.338 130.347 136.112 129.778C135.814 129.038 136.192 128.205 136.949 127.913C137.015 127.884 143.778 125.25 145.227 121.136C145.715 119.747 145.518 118.345 144.623 116.857C141.849 112.251 133.688 114.031 133.608 114.052C132.814 114.23 132.028 113.746 131.838 112.977C131.656 112.202 132.144 111.433 132.938 111.248C133.36 111.148 143.291 108.962 147.164 115.398C148.503 117.626 148.787 119.883 148.008 122.082C146.101 127.457 138.347 130.476 138.02 130.597C137.845 130.661 137.663 130.696 137.481 130.696Z" fill="#E1CCBB"/>
</svg>
