<?xml version="1.0" encoding="UTF-8"?>
<svg id="_레이어_1" data-name="레이어_1" xmlns="http://www.w3.org/2000/svg" viewBox="0 0 30 30">
  <defs>
    <style>
      .cls-1 {
        fill: #494949;
      }

      .cls-2 {
        fill: #f6bebe;
      }
    </style>
  </defs>
  <path class="cls-1" d="M17.86,24.84H.71c-.39,0-.71-.32-.71-.71V.72C0,.32.32,0,.71,0h17.14c.39,0,.71.32.71.71v23.41c0,.39-.32.71-.71.71ZM1.43,23.41h15.71V1.43H1.43v21.98Z"/>
  <g>
    <polygon class="cls-2" points="29.29 12.42 21.15 4.88 21.15 9.74 14.68 9.74 14.68 15.1 21.15 15.1 21.15 19.96 29.29 12.42"/>
    <path class="cls-1" d="M21.15,20.67c-.1,0-.19-.02-.29-.06-.26-.11-.43-.37-.43-.65v-4.14h-5.76c-.39,0-.71-.32-.71-.71v-5.37c0-.39.32-.71.71-.71h5.76v-4.14c0-.28.17-.54.43-.65.26-.11.56-.06.77.13l8.13,7.54c.15.13.23.32.23.52s-.08.39-.23.52l-8.13,7.54c-.13.13-.31.19-.49.19ZM15.4,14.39h5.76c.39,0,.71.32.71.71v3.22l6.37-5.9-6.37-5.9v3.22c0,.39-.32.71-.71.71h-5.76v3.94Z"/>
  </g>
  <g>
    <polygon class="cls-2" points="11.17 29.29 .71 24.33 .71 .72 11.17 5.67 11.17 29.29"/>
    <path class="cls-1" d="M11.17,30c-.1,0-.21-.02-.31-.07L.41,24.98c-.25-.12-.41-.37-.41-.65V.72C0,.47.13.24.33.11c.21-.13.47-.15.69-.04l10.45,4.95c.25.12.41.37.41.65v23.62c0,.24-.13.47-.33.6-.12.07-.25.11-.38.11ZM1.43,23.88l9.03,4.27V6.12L1.43,1.84v22.04Z"/>
  </g>
</svg>