<?xml version="1.0" encoding="UTF-8"?>
<svg id="_선깸" data-name="선깸" xmlns="http://www.w3.org/2000/svg" viewBox="0 0 20 20">
  <defs>
    <style>
      .cls-1 {
        fill: #494949;
      }
    </style>
  </defs>
  <path class="cls-1" d="M14.12,3.5c2.41,0,4.38,1.94,4.38,4.32,0,.15-.03.33-.06.53v.08c-.02.05-.02.11-.03.16-.01.08-.03.15-.06.25-.05.21-.11.4-.18.57-.02.05-.04.1-.07.16-1.29,2.93-5.84,5.65-8.12,6.78-2.28-1.13-6.83-3.85-8.12-6.79-.02-.05-.04-.1-.06-.14-.07-.18-.13-.37-.19-.6-.02-.08-.04-.16-.05-.21,0,0,0,0,0,0,0-.05,0-.11-.01-.16v-.08c-.04-.21-.07-.39-.07-.53,0-2.38,1.96-4.32,4.38-4.32,1.16,0,2.25.44,3.08,1.25.29.28.67.43,1.05.43s.76-.14,1.05-.43c.83-.81,1.92-1.25,3.08-1.25M14.12,2c-1.61,0-3.06.64-4.12,1.68-1.06-1.04-2.52-1.68-4.12-1.68C2.63,2,0,4.6,0,7.82,0,8.1.04,8.37.08,8.65h-.02c0,.07.03.13.04.2.02.12.05.23.08.34.06.27.14.53.25.79.03.07.05.13.08.19,1.97,4.47,9.49,7.83,9.49,7.83,0,0,7.52-3.36,9.49-7.83.03-.06.06-.13.08-.19.1-.26.18-.52.25-.79.03-.11.05-.22.08-.34.01-.07.04-.13.04-.2h-.02c.04-.27.08-.55.08-.83,0-3.21-2.63-5.82-5.88-5.82h0ZM19.94,8.65h0,0Z"/>
</svg>