<svg width="24" height="22" viewBox="0 0 24 22" fill="none" xmlns="http://www.w3.org/2000/svg">
<g clip-path="url(#clip0_633_3320)">
<path d="M12 0C5.37181 0 0 4.23678 0 9.46612C0 12.8684 2.27694 15.8516 5.69235 17.5206C5.44182 18.4543 4.78416 20.9082 4.65152 21.432C4.48941 22.0827 4.88916 22.0754 5.15444 21.9007C5.36076 21.7629 8.44274 19.6712 9.7728 18.7687C10.4949 18.8753 11.2392 18.9322 12 18.9322C18.6282 18.9322 24 14.6955 24 9.46612C24 4.23678 18.6282 0 12 0Z" fill="#381E1F"/>
<path d="M3.62911 7.72351H4.86337C4.86337 7.72351 4.87074 11.1093 4.86337 11.8978C4.86337 12.4731 6.14922 12.4805 6.14738 11.907L6.1529 7.76946C6.1529 7.76946 6.56739 7.77313 7.38164 7.77313C8.14983 7.77313 8.14983 6.56919 7.38164 6.56735C6.51581 6.56735 3.62542 6.54346 3.62542 6.54346C2.90144 6.54346 2.90329 7.72534 3.62542 7.72534" fill="#FAE100"/>
<mask id="mask0_633_3320" style="mask-type:luminance" maskUnits="userSpaceOnUse" x="3" y="6" width="5" height="7">
<path d="M3.62911 7.72351H4.86337C4.86337 7.72351 4.87074 11.1093 4.86337 11.8978C4.86337 12.4731 6.14922 12.4805 6.14738 11.907L6.1529 7.76946C6.1529 7.76946 6.56739 7.77313 7.38164 7.77313C8.14983 7.77313 8.14983 6.56919 7.38164 6.56735C6.51581 6.56735 3.62542 6.54346 3.62542 6.54346C2.90144 6.54346 2.90329 7.72534 3.62542 7.72534" fill="white"/>
</mask>
<g mask="url(#mask0_633_3320)">
<path d="M8.14982 6.5415H2.90143V12.4803H8.14982V6.5415Z" fill="#FAE100"/>
</g>
<path d="M9.54068 7.94215L10.2278 10.0909H8.79459L9.54068 7.94215ZM8.77064 6.93488C8.46668 7.60211 7.36874 10.7563 7.00399 11.5926C6.74055 12.1973 7.87718 12.6899 8.14061 12.0852L8.38747 11.2231H10.6478C10.6478 11.2231 10.5705 11.2581 10.8707 12.0484C11.1139 12.6881 12.2874 12.2451 12.0442 11.6054C11.6979 10.6919 10.4968 7.39992 10.2776 6.93488C10.1762 6.71983 9.81516 6.56543 9.46515 6.56543C9.17408 6.56543 8.89223 6.6702 8.77248 6.93488" fill="#FAE100"/>
<mask id="mask1_633_3320" style="mask-type:luminance" maskUnits="userSpaceOnUse" x="6" y="6" width="7" height="7">
<path d="M9.54068 7.94215L10.2278 10.0909H8.79459L9.54068 7.94215ZM8.77064 6.93488C8.46668 7.60211 7.36874 10.7563 7.00399 11.5926C6.74055 12.1973 7.87718 12.6899 8.14061 12.0852L8.38747 11.2231H10.6478C10.6478 11.2231 10.5705 11.2581 10.8707 12.0484C11.1139 12.6881 12.2874 12.2451 12.0442 11.6054C11.6979 10.6919 10.4968 7.39992 10.2776 6.93488C10.1762 6.71983 9.81516 6.56543 9.46515 6.56543C9.17408 6.56543 8.89223 6.6702 8.77248 6.93488" fill="white"/>
</mask>
<g mask="url(#mask1_633_3320)">
<path d="M12.2874 6.56543H6.74054V12.6918H12.2874V6.56543Z" fill="#FAE100"/>
</g>
<path d="M12.4753 7.1335C12.4771 8.2051 12.4808 11.6607 12.4808 11.6607C12.4808 11.6607 12.3813 12.3481 12.9708 12.3481C13.5603 12.3481 14.8701 12.3426 15.4504 12.3426C16.0307 12.3426 16.027 11.1111 15.4467 11.1111C14.8665 11.1111 13.8072 11.1056 13.8072 11.1056C13.8072 11.1056 13.8127 7.91101 13.8109 7.1335C13.8109 6.75853 13.4756 6.57104 13.1422 6.57104C12.8087 6.57104 12.4716 6.76037 12.4735 7.13717" fill="#FAE100"/>
<mask id="mask2_633_3320" style="mask-type:luminance" maskUnits="userSpaceOnUse" x="12" y="6" width="4" height="7">
<path d="M12.4753 7.1335C12.4771 8.2051 12.4808 11.6607 12.4808 11.6607C12.4808 11.6607 12.3813 12.3481 12.9708 12.3481C13.5603 12.3481 14.8701 12.3426 15.4504 12.3426C16.0307 12.3426 16.027 11.1111 15.4467 11.1111C14.8665 11.1111 13.8072 11.1056 13.8072 11.1056C13.8072 11.1056 13.8127 7.91101 13.8109 7.1335C13.8109 6.75853 13.4756 6.57104 13.1422 6.57104C12.8087 6.57104 12.4716 6.76037 12.4735 7.13717" fill="white"/>
</mask>
<g mask="url(#mask2_633_3320)">
<path d="M16.0325 6.56738H12.3832V12.3463H16.0325V6.56738Z" fill="#FAE100"/>
</g>
<path d="M16.1873 6.96244C16.2002 7.43299 16.1725 11.6826 16.1725 11.9969C16.1725 12.4932 17.4418 12.4932 17.44 11.9969C17.44 11.4198 17.44 10.3243 17.44 10.3243L17.8121 10.0265L19.4406 12.2432C19.7703 12.677 20.8056 11.894 20.4777 11.4602L18.7479 9.18836C18.7479 9.18836 19.9214 7.92192 20.3838 7.4624C20.6546 7.19588 19.8182 6.35404 19.5474 6.6224C19.2858 6.88157 17.4473 8.71781 17.4473 8.71781C17.4473 8.71781 17.4639 7.56533 17.4473 6.92752C17.4418 6.68489 17.1434 6.56909 16.8394 6.56909C16.5134 6.56909 16.1799 6.70327 16.1873 6.96244Z" fill="#FAE100"/>
<mask id="mask3_633_3320" style="mask-type:luminance" maskUnits="userSpaceOnUse" x="16" y="6" width="5" height="7">
<path d="M16.1873 6.96244C16.2002 7.43299 16.1725 11.6826 16.1725 11.9969C16.1725 12.4932 17.4418 12.4932 17.44 11.9969C17.44 11.4198 17.44 10.3243 17.44 10.3243L17.8121 10.0265L19.4406 12.2432C19.7703 12.677 20.8056 11.894 20.4777 11.4602L18.7479 9.18836C18.7479 9.18836 19.9214 7.92192 20.3838 7.4624C20.6546 7.19588 19.8182 6.35404 19.5474 6.6224C19.2858 6.88157 17.4473 8.71781 17.4473 8.71781C17.4473 8.71781 17.4639 7.56533 17.4473 6.92752C17.4418 6.68489 17.1434 6.56909 16.8394 6.56909C16.5134 6.56909 16.1799 6.70327 16.1873 6.96244Z" fill="white"/>
</mask>
<g mask="url(#mask3_633_3320)">
<path d="M20.8075 6.35596H16.1725V12.6771H20.8075V6.35596Z" fill="#FAE100"/>
</g>
</g>
<defs>
<clipPath id="clip0_633_3320">
<rect width="24" height="22" fill="white"/>
</clipPath>
</defs>
</svg>
