<svg width="108" height="111" viewBox="0 0 108 111" fill="none" xmlns="http://www.w3.org/2000/svg">
<path d="M0.0142848 102.958C0.0142848 102.142 0.0642815 101.39 0.157133 100.695C0.249984 100 0.399974 99.2556 0.585676 98.475H5.04252V100.165C5.04252 102.206 5.34965 103.774 5.97104 104.863C6.59242 105.951 7.54236 106.496 8.82799 106.496C11.0421 106.496 12.1492 105.407 12.1492 103.23C12.1492 102.385 11.9706 101.497 11.6064 100.566C11.2421 99.6351 10.5422 98.4893 9.49223 97.143L3.50691 89.6092C2.45698 88.2486 1.64275 86.8808 1.05707 85.5201C0.471398 84.1595 0.17856 82.6413 0.17856 80.9655C0.17856 78.4447 0.95708 76.3823 2.51412 74.7781C4.07116 73.174 6.2353 72.3647 8.99226 72.3647C11.2207 72.3647 12.9706 72.7658 14.2419 73.575C15.5133 74.3842 16.4132 75.4012 16.9346 76.6329C17.456 77.8647 17.7203 79.1251 17.7203 80.4069C17.7203 81.2233 17.656 81.9753 17.5346 82.6628C17.406 83.3502 17.2631 84.1093 17.106 84.9401H12.6706V83.1211C12.6706 81.1231 12.3492 79.5834 11.7207 78.502C11.085 77.4207 10.1779 76.8835 8.99226 76.8835C7.91376 76.8835 7.09953 77.1843 6.54243 77.7859C5.98532 78.3874 5.71391 79.1895 5.71391 80.1993C5.71391 81.0586 5.89247 81.8392 6.24959 82.541C6.60671 83.2428 7.05668 83.9661 7.5995 84.7037L14.2705 93.1899C15.499 94.7726 16.4346 96.2836 17.0774 97.7087C17.7203 99.141 18.0417 100.724 18.0417 102.471C18.0417 105.092 17.206 107.169 15.5347 108.701C13.8634 110.234 11.6421 111 8.8637 111C6.58528 111 4.80683 110.613 3.51405 109.833C2.22128 109.052 1.3142 108.05 0.785663 106.825C0.264268 105.593 0 104.304 0 102.958H0.0142848Z" fill="#494949"/>
<path d="M22.4414 72.6943H28.1839V88.5782H34.9834V72.6943H40.7259V110.642H34.9834V93.1113H28.1839V110.642H22.4414V72.6943Z" fill="#494949"/>
<path d="M51.2041 72.6943H57.6751L64.746 110.642H58.9821L57.9393 103.846H50.9398L49.9399 110.642H44.1545L51.2041 72.6943ZM57.2751 99.5136L54.5681 80.5145H54.3253L51.5969 99.5136H57.268H57.2751Z" fill="#494949"/>
<path d="M68.1812 72.6943H74.4094C75.2807 72.6943 76.2378 72.7445 77.2878 72.8519C78.3377 72.9521 79.3805 73.1885 80.409 73.5537C81.4446 73.9189 82.3874 74.4847 83.2445 75.2653C84.1016 76.0458 84.7944 77.1057 85.3158 78.4449C85.8372 79.7841 86.1015 81.4885 86.1015 83.5438V84.4962C86.1015 90.1823 84.3944 93.8418 80.9804 95.4746L87.2085 110.649H81.0946L75.8879 96.4485H73.9166V110.649H68.1741V72.7015L68.1812 72.6943ZM74.6736 92.2949C76.7735 92.2949 78.2163 91.8079 79.0091 90.8268C79.8019 89.8457 80.1947 88.0841 80.1947 85.5418V82.5412C80.1947 80.5861 79.8233 79.1467 79.0734 78.2301C78.3305 77.3134 76.8592 76.8551 74.6736 76.8551H73.9237V92.2949H74.6736Z" fill="#494949"/>
<path d="M91.6011 72.6943H106.072V77.2275H97.3436V88.5782H104.193V93.1113H97.3436V106.109H106.072V110.642H91.6011V72.6943Z" fill="#494949"/>
<path d="M51.9465 6.37305H63.3529C66.3241 6.37305 68.8811 8.47848 69.4597 11.4003L79.9232 64.2009H70.581L68.8954 56.882H57.539L56.3605 61.2647C56.1105 62.9834 54.6392 64.2581 52.9036 64.2581H46.5469L51.9465 6.37305ZM67.8169 49.8567L63.4315 19.0558H63.0386L58.6175 49.8567H67.8169Z" fill="#494949"/>
<path d="M86.6227 46.3262L74.6235 6.37305H84.0015L91.1153 36.0568H91.5438L98.6577 6.37305H108L95.9293 46.3262V64.2581H86.6227V46.3262Z" fill="#494949"/>
<path d="M46.2612 62.4752H4.05688L16.5632 8.14209H51.0109C55.1678 8.14209 58.4104 11.7084 58.0033 15.819L53.2608 56.1732C52.9037 59.7467 49.8824 62.4752 46.2684 62.4752H46.2612Z" fill="#494949" stroke="#494949" stroke-width="5.09" stroke-linecap="round" stroke-linejoin="round"/>
<path d="M25.577 5.71415C25.577 4.21517 24.3651 3 22.8701 3C21.375 3 20.1631 4.21517 20.1631 5.71415V8.47842C20.1631 9.97741 21.375 11.1926 22.8701 11.1926C24.3651 11.1926 25.577 9.97741 25.577 8.47842V5.71415Z" fill="white" stroke="#494949" stroke-width="4.33" stroke-linecap="round" stroke-linejoin="round"/>
<path d="M36.6832 5.71415C36.6832 4.21517 35.4713 3 33.9763 3C32.4812 3 31.2693 4.21517 31.2693 5.71415V8.47842C31.2693 9.97741 32.4812 11.1926 33.9763 11.1926C35.4713 11.1926 36.6832 9.97741 36.6832 8.47842V5.71415Z" fill="white" stroke="#494949" stroke-width="4.33" stroke-linecap="round" stroke-linejoin="round"/>
<path d="M47.7897 5.71415C47.7897 4.21517 46.5777 3 45.0827 3C43.5877 3 42.3757 4.21517 42.3757 5.71415V8.47842C42.3757 9.97741 43.5877 11.1926 45.0827 11.1926C46.5777 11.1926 47.7897 9.97741 47.7897 8.47842V5.71415Z" fill="white" stroke="#494949" stroke-width="4.33" stroke-linecap="round" stroke-linejoin="round"/>
<path d="M58.8959 5.71415C58.8959 4.21517 57.6839 3 56.1889 3C54.6939 3 53.4819 4.21517 53.4819 5.71415V8.47842C53.4819 9.97741 54.6939 11.1926 56.1889 11.1926C57.6839 11.1926 58.8959 9.97741 58.8959 8.47842V5.71415Z" fill="white" stroke="#494949" stroke-width="4.33" stroke-linecap="round" stroke-linejoin="round"/>
<path d="M28.9625 30.1554C31.9643 30.1554 34.3978 27.7155 34.3978 24.7056C34.3978 21.6958 31.9643 19.2559 28.9625 19.2559C25.9606 19.2559 23.5271 21.6958 23.5271 24.7056C23.5271 27.7155 25.9606 30.1554 28.9625 30.1554Z" fill="white" stroke="white" stroke-width="4.04" stroke-linecap="round" stroke-linejoin="round"/>
<path d="M28.9625 26.5961C30.0039 26.5961 30.8481 25.7497 30.8481 24.7055C30.8481 23.6614 30.0039 22.8149 28.9625 22.8149C27.9211 22.8149 27.0769 23.6614 27.0769 24.7055C27.0769 25.7497 27.9211 26.5961 28.9625 26.5961Z" fill="#494949" stroke="#494949" stroke-width="4.04" stroke-linecap="round" stroke-linejoin="round"/>
<path d="M41.5757 30.1554C44.5776 30.1554 47.0111 27.7155 47.0111 24.7056C47.0111 21.6958 44.5776 19.2559 41.5757 19.2559C38.5739 19.2559 36.1404 21.6958 36.1404 24.7056C36.1404 27.7155 38.5739 30.1554 41.5757 30.1554Z" fill="white" stroke="white" stroke-width="4.04" stroke-linecap="round" stroke-linejoin="round"/>
<path d="M41.5758 26.5961C42.6172 26.5961 43.4614 25.7497 43.4614 24.7055C43.4614 23.6614 42.6172 22.8149 41.5758 22.8149C40.5344 22.8149 39.6902 23.6614 39.6902 24.7055C39.6902 25.7497 40.5344 26.5961 41.5758 26.5961Z" fill="#494949" stroke="#494949" stroke-width="4.04" stroke-linecap="round" stroke-linejoin="round"/>
</svg>
