<svg width="246" height="58" viewBox="0 0 246 58" fill="none" xmlns="http://www.w3.org/2000/svg">
<path d="M103.051 46.9476C103.051 45.8511 103.118 44.8412 103.243 43.9082C103.368 42.9752 103.569 41.9749 103.818 40.9266H109.804V43.1965C109.804 45.9377 110.217 48.0441 111.051 49.506C111.886 50.968 113.162 51.699 114.889 51.699C117.862 51.699 119.349 50.237 119.349 47.3131C119.349 46.1781 119.109 44.9855 118.62 43.7351C118.131 42.4847 117.191 40.9458 115.781 39.1376L107.742 29.0192C106.332 27.1917 105.238 25.3546 104.452 23.5271C103.665 21.6997 103.272 19.6606 103.272 17.4099C103.272 14.0243 104.317 11.2542 106.408 9.09975C108.5 6.94526 111.406 5.8584 115.109 5.8584C118.102 5.8584 120.452 6.39702 122.16 7.48389C123.867 8.57075 125.076 9.93654 125.776 11.5909C126.477 13.2452 126.832 14.938 126.832 16.6597C126.832 17.7562 126.745 18.7661 126.582 19.6895C126.409 20.6128 126.218 21.6323 126.007 22.7481H120.049V20.305C120.049 17.6215 119.618 15.5536 118.774 14.1012C117.92 12.6489 116.702 11.9275 115.109 11.9275C113.661 11.9275 112.567 12.3315 111.819 13.1394C111.071 13.9473 110.706 15.0246 110.706 16.3808C110.706 17.535 110.946 18.5833 111.426 19.5259C111.905 20.4685 112.51 21.44 113.239 22.4307L122.198 33.8283C123.848 35.9539 125.105 37.9834 125.968 39.8974C126.832 41.8211 127.263 43.9467 127.263 46.2935C127.263 49.8138 126.141 52.6031 123.896 54.6614C121.651 56.7197 118.668 57.7489 114.936 57.7489C111.876 57.7489 109.488 57.2295 107.751 56.1811C106.015 55.1327 104.797 53.7862 104.087 52.1414C103.387 50.4871 103.032 48.7558 103.032 46.9476H103.051Z" fill="#494949"/>
<path d="M133.172 5.8584H140.885V27.1917H150.017V5.8584H157.73V56.8255H150.017V33.28H140.885V56.8255H133.172V5.8584Z" fill="#494949"/>
<path d="M171.803 5.8584H180.494L189.991 56.8255H182.249L180.849 47.6978H171.448L170.105 56.8255H162.335L171.803 5.8584ZM179.957 41.8788L176.321 16.3615H175.995L172.331 41.8788H179.947H179.957Z" fill="#494949"/>
<path d="M194.605 5.8584H202.97C204.14 5.8584 205.426 5.92573 206.836 6.07C208.246 6.20466 209.646 6.52206 211.028 7.01259C212.419 7.50312 213.685 8.26297 214.836 9.31136C215.987 10.3597 216.918 11.7832 217.618 13.5819C218.318 15.3805 218.673 17.6696 218.673 20.4301V21.7093C218.673 29.3462 216.381 34.2611 211.795 36.4541L220.16 56.8352H211.949L204.956 37.7622H202.308V56.8352H194.595V5.86802L194.605 5.8584ZM203.325 32.1836C206.145 32.1836 208.083 31.5295 209.148 30.2118C210.212 28.8941 210.74 26.528 210.74 23.1136V19.0835C210.74 16.4577 210.241 14.5245 209.234 13.2933C208.236 12.0622 206.26 11.4466 203.325 11.4466H202.317V32.1836H203.325Z" fill="#494949"/>
<path d="M226.059 5.8584H245.494V11.9468H233.772V27.1917H242.972V33.28H233.772V50.7372H245.494V56.8255H226.059V5.8584Z" fill="#494949"/>
<path d="M75.9489 40.7742L65.1927 4.95996H73.5992L79.9761 31.5687H80.3602L86.7371 4.95996H95.1116L84.2914 40.7742V56.8486H75.9489V40.7742Z" fill="#494949"/>
<g clip-path="url(#clip0_633_3663)">
<path d="M60.2384 9.05205C59.7149 6.39504 57.4016 4.48044 54.7134 4.48044H52.0834V3.88131C52.0834 1.73877 50.3581 0 48.2321 0C46.1062 0 44.3808 1.73877 44.3808 3.88131V4.59115C44.2968 4.59115 44.2064 4.57812 44.1224 4.57812H42.0352V3.88131C42.0352 1.73877 40.3098 0 38.1839 0C36.0579 0 34.3326 1.73877 34.3326 3.88131V4.57812H31.9869V3.88131C31.9869 1.73877 30.2616 0 28.1356 0C26.0096 0 24.2843 1.73877 24.2843 3.88131V4.57812H21.9386V3.88131C21.9386 1.73877 20.2133 0 18.0873 0C15.9614 0 14.236 1.73877 14.236 3.88131V4.57812H12.9566C12.1876 4.57812 11.5285 5.11213 11.354 5.86104L0.0456713 55.0938C-0.0641811 55.5822 0.0456713 56.0966 0.362305 56.4939C0.672477 56.8911 1.15066 57.1191 1.64822 57.1191H45.2597C46.8299 57.1191 48.161 55.9599 48.3872 54.3969L49.4534 50.4114H59.7279L61.2529 57.067H69.7051L60.2384 9.05205ZM37.137 3.88131C37.137 3.29521 37.6088 2.82632 38.1839 2.82632C38.759 2.82632 39.2307 3.30172 39.2307 3.88131V6.38853C39.2307 6.97464 38.759 7.44352 38.1839 7.44352C37.6088 7.44352 37.137 6.96812 37.137 6.38853V3.88131ZM27.0888 3.88131C27.0888 3.29521 27.5605 2.82632 28.1356 2.82632C28.7107 2.82632 29.1824 3.30172 29.1824 3.88131V6.38853C29.1824 6.97464 28.7107 7.44352 28.1356 7.44352C27.5605 7.44352 27.0888 6.96812 27.0888 6.38853V3.88131ZM17.0405 3.88131C17.0405 3.29521 17.5122 2.82632 18.0873 2.82632C18.6624 2.82632 19.1342 3.30172 19.1342 3.88131V6.38853C19.1342 6.97464 18.6624 7.44352 18.0873 7.44352C17.5122 7.44352 17.0405 6.96812 17.0405 6.38853V3.88131ZM47.1853 3.88131C47.1853 3.29521 47.657 2.82632 48.2321 2.82632C48.8072 2.82632 49.279 3.30172 49.279 3.88131V6.38853C49.279 6.97464 48.8072 7.44352 48.2321 7.44352C47.657 7.44352 47.1853 6.96812 47.1853 6.38853V3.88131ZM50.4356 44.0229L54.4356 16.0137H54.791L58.7586 44.0229H50.4356Z" fill="#494949"/>
<path d="M23.5989 26.1077C26.3148 26.1077 28.5164 23.8889 28.5164 21.1519C28.5164 18.4148 26.3148 16.196 23.5989 16.196C20.883 16.196 18.6814 18.4148 18.6814 21.1519C18.6814 23.8889 20.883 26.1077 23.5989 26.1077Z" fill="white"/>
<path d="M23.5989 27.4297C20.1676 27.4297 17.3696 24.6164 17.3696 21.1584C17.3696 17.7004 20.1612 14.8871 23.5989 14.8871C27.0366 14.8871 29.8217 17.7004 29.8217 21.1584C29.8217 24.6164 27.0302 27.4297 23.5989 27.4297ZM23.5989 17.5115C21.6086 17.5115 19.9867 19.1461 19.9867 21.1519C19.9867 23.1577 21.6086 24.7922 23.5989 24.7922C25.5892 24.7922 27.2111 23.1577 27.2111 21.1519C27.2111 19.1461 25.5892 17.5115 23.5989 17.5115Z" fill="white"/>
<path d="M23.5989 22.8711C24.5411 22.8711 25.3049 22.1014 25.3049 21.1519C25.3049 20.2023 24.5411 19.4326 23.5989 19.4326C22.6568 19.4326 21.893 20.2023 21.893 21.1519C21.893 22.1014 22.6568 22.8711 23.5989 22.8711Z" fill="#494949"/>
<path d="M23.5989 24.1865C21.9382 24.1865 20.5876 22.8254 20.5876 21.1518C20.5876 19.4781 21.9382 18.1171 23.5989 18.1171C25.2596 18.1171 26.6101 19.4781 26.6101 21.1518C26.6101 22.8254 25.2596 24.1865 23.5989 24.1865ZM23.5989 20.748C23.3792 20.748 23.1983 20.9304 23.1983 21.1518C23.1983 21.3732 23.3792 21.5555 23.5989 21.5555C23.8186 21.5555 23.9995 21.3732 23.9995 21.1518C23.9995 20.9304 23.8186 20.748 23.5989 20.748Z" fill="#494949"/>
<path d="M35.0107 26.1077C37.7265 26.1077 39.9282 23.8889 39.9282 21.1519C39.9282 18.4148 37.7265 16.196 35.0107 16.196C32.2948 16.196 30.0931 18.4148 30.0931 21.1519C30.0931 23.8889 32.2948 26.1077 35.0107 26.1077Z" fill="white"/>
<path d="M35.0107 27.4297C31.5794 27.4297 28.7814 24.6164 28.7814 21.1584C28.7814 17.7004 31.5729 14.8871 35.0107 14.8871C38.4484 14.8871 41.2335 17.7004 41.2335 21.1584C41.2335 24.6164 38.4419 27.4297 35.0107 27.4297ZM35.0107 17.5115C33.0204 17.5115 31.3984 19.1461 31.3984 21.1519C31.3984 23.1577 33.0204 24.7922 35.0107 24.7922C37.0009 24.7922 38.6229 23.1577 38.6229 21.1519C38.6229 19.1461 37.0009 17.5115 35.0107 17.5115Z" fill="white"/>
<path d="M35.0106 22.8711C35.9528 22.8711 36.7166 22.1014 36.7166 21.1519C36.7166 20.2023 35.9528 19.4326 35.0106 19.4326C34.0685 19.4326 33.3047 20.2023 33.3047 21.1519C33.3047 22.1014 34.0685 22.8711 35.0106 22.8711Z" fill="#494949"/>
<path d="M35.0106 24.1865C33.3499 24.1865 31.9994 22.8254 31.9994 21.1518C31.9994 19.4781 33.3499 18.1171 35.0106 18.1171C36.6714 18.1171 38.0219 19.4781 38.0219 21.1518C38.0219 22.8254 36.6714 24.1865 35.0106 24.1865ZM35.0106 20.748C34.7909 20.748 34.61 20.9304 34.61 21.1518C34.61 21.3732 34.7909 21.5555 35.0106 21.5555C35.2303 21.5555 35.4113 21.3732 35.4113 21.1518C35.4113 20.9304 35.2303 20.748 35.0106 20.748Z" fill="#494949"/>
<path d="M17.04 3.88128C17.04 3.29518 17.5118 2.82629 18.0869 2.82629C18.662 2.82629 19.1337 3.30169 19.1337 3.88128V6.3885C19.1337 6.97461 18.662 7.44349 18.0869 7.44349C17.5118 7.44349 17.04 6.96809 17.04 6.3885V3.88128Z" fill="white"/>
<path d="M27.0883 3.88128C27.0883 3.29518 27.56 2.82629 28.1351 2.82629C28.7103 2.82629 29.182 3.30169 29.182 3.88128V6.3885C29.182 6.97461 28.7103 7.44349 28.1351 7.44349C27.56 7.44349 27.0883 6.96809 27.0883 6.3885V3.88128Z" fill="white"/>
<path d="M37.1366 3.88128C37.1366 3.29518 37.6083 2.82629 38.1834 2.82629C38.7585 2.82629 39.2303 3.30169 39.2303 3.88128V6.3885C39.2303 6.97461 38.7585 7.44349 38.1834 7.44349C37.6083 7.44349 37.1366 6.96809 37.1366 6.3885V3.88128Z" fill="white"/>
<path d="M47.1849 3.88128C47.1849 3.29518 47.6566 2.82629 48.2317 2.82629C48.8068 2.82629 49.2785 3.30169 49.2785 3.88128V6.3885C49.2785 6.97461 48.8068 7.44349 48.2317 7.44349C47.6566 7.44349 47.1849 6.96809 47.1849 6.3885V3.88128Z" fill="white"/>
</g>
<defs>
<clipPath id="clip0_633_3663">
<rect width="69.7046" height="57.1191" fill="white"/>
</clipPath>
</defs>
</svg>
