<svg width="751" height="600" viewBox="0 0 751 600" fill="none" xmlns="http://www.w3.org/2000/svg">
<path d="M650.01 95.56C644.41 67.75 619.7 47.76 591.02 47.76H562.93V41.48C562.93 19.08 544.49 0.820007 521.8 0.820007C499.11 0.820007 480.67 19.07 480.67 41.48V47.76C477.68 47.47 474.78 47.28 471.79 47.28H455.67V41.49C455.67 19.09 437.23 0.830002 414.54 0.830002C391.85 0.830002 373.41 19.08 373.41 41.49V47.28H348.4V41.49C348.4 19.09 329.96 0.830002 307.27 0.830002C284.58 0.830002 266.14 19.08 266.14 41.49V47.28H241.13V41.49C241.13 19.09 222.69 0.830002 200 0.830002C177.31 0.830002 158.87 19.08 158.87 41.49V47.28H139.08C130.87 47.28 123.83 52.88 121.99 60.7L1.40997 577.93C0.249966 583.05 1.40996 588.46 4.78996 592.61C8.16996 596.76 13.19 599.18 18.5 599.18H426.01C428.81 599.18 431.61 599.08 434.41 598.79H490.12C506.82 598.79 521.11 586.62 523.52 570.3L534.91 528.58H644.49L660.81 598.3H750.98L649.9 95.65L650 95.55L650.01 95.56ZM403.44 41.48C403.44 35.4 408.46 30.37 414.64 30.37C420.82 30.37 425.84 35.3 425.84 41.48V67.75C425.84 73.83 420.82 78.86 414.64 78.86C408.46 78.86 403.44 73.93 403.44 67.75V41.48ZM296.18 41.48C296.18 35.4 301.2 30.37 307.38 30.37C313.56 30.37 318.58 35.3 318.58 41.48V67.75C318.58 73.83 313.56 78.86 307.38 78.86C301.2 78.86 296.18 73.93 296.18 67.75V41.48ZM189.02 41.48C189.02 35.4 194.04 30.37 200.22 30.37C206.4 30.37 211.42 35.3 211.42 41.48V67.75C211.42 73.83 206.4 78.86 200.22 78.86C194.04 78.86 189.02 73.93 189.02 67.75V41.48ZM510.7 41.48C510.7 35.4 515.72 30.37 521.9 30.37C528.08 30.37 533.1 35.3 533.1 41.48V67.75C533.1 73.83 528.08 78.86 521.9 78.86C515.72 78.86 510.7 73.93 510.7 67.75V41.48ZM545.36 461.66L588.03 168.47H591.89L634.18 461.66H545.36Z" fill="#494949"/>
<path d="M403.44 41.48C403.44 35.39 408.46 30.37 414.64 30.37C420.82 30.37 425.84 35.3 425.84 41.48V67.75C425.84 73.84 420.82 78.86 414.64 78.86C408.46 78.86 403.44 73.93 403.44 67.75V41.48Z" fill="white"/>
<path d="M296.19 41.48C296.19 35.39 301.21 30.37 307.39 30.37C313.57 30.37 318.59 35.3 318.59 41.48V67.75C318.59 73.84 313.57 78.86 307.39 78.86C301.21 78.86 296.19 73.93 296.19 67.75V41.48Z" fill="white"/>
<path d="M189.02 41.48C189.02 35.39 194.04 30.37 200.22 30.37C206.4 30.37 211.42 35.3 211.42 41.48V67.75C211.42 73.84 206.4 78.86 200.22 78.86C194.04 78.86 189.02 73.93 189.02 67.75V41.48Z" fill="white"/>
<path d="M510.7 41.48C510.7 35.39 515.72 30.37 521.9 30.37C528.08 30.37 533.1 35.3 533.1 41.48V67.75C533.1 73.84 528.08 78.86 521.9 78.86C515.72 78.86 510.7 73.93 510.7 67.75V41.48Z" fill="white"/>
<path d="M380.76 146.07C353.53 146.07 330.07 162.58 319.84 186.05C309.61 162.58 286.15 146.07 258.92 146.07C222.23 146.07 192.5 175.91 192.5 212.51C192.5 249.11 222.33 278.95 258.92 278.95C286.14 278.95 309.51 262.44 319.84 238.97C330.07 262.44 353.53 278.95 380.76 278.95C417.35 278.95 447.18 249.11 447.18 212.51C447.18 175.91 417.35 146.07 380.76 146.07Z" fill="white"/>
<path d="M380.76 180.44C363 180.44 348.61 194.83 348.61 212.6C348.61 230.37 362.99 244.76 380.76 244.76C398.53 244.76 412.91 230.37 412.91 212.6C412.91 194.83 398.53 180.44 380.76 180.44Z" fill="#494949"/>
<path d="M259.01 180.44C241.25 180.44 226.86 194.83 226.86 212.6C226.86 230.37 241.24 244.76 259.01 244.76C276.78 244.76 291.16 230.37 291.16 212.6C291.16 194.83 276.78 180.44 259.01 180.44Z" fill="#494949"/>
</svg>
