<svg width="108" height="108" viewBox="0 0 108 108" fill="none" xmlns="http://www.w3.org/2000/svg">
<path d="M0.0299944 100.079C0.0299944 99.279 0.0799851 98.5289 0.169968 97.8488C0.26995 97.1588 0.409923 96.4287 0.599888 95.6586H5.04906V97.3188C5.04906 99.339 5.359 100.879 5.97888 101.949C6.59877 103.019 7.54859 103.559 8.83835 103.559C11.0579 103.559 12.1577 102.489 12.1577 100.339C12.1577 99.509 11.9778 98.6289 11.6178 97.7088C11.2579 96.7887 10.548 95.6686 9.49823 94.3385L3.51934 86.9078C2.46954 85.5677 1.64969 84.2176 1.0698 82.8774C0.489909 81.5373 0.189965 80.0372 0.189965 78.387C0.189965 75.9068 0.969819 73.8766 2.52953 72.2865C4.08924 70.7063 6.24883 69.9062 9.00832 69.9062C11.2379 69.9062 12.9876 70.3063 14.2573 71.0964C15.5271 71.8964 16.4269 72.8965 16.9468 74.1066C17.4667 75.3167 17.7367 76.5569 17.7367 77.827C17.7367 78.6271 17.6767 79.3671 17.5467 80.0472C17.4168 80.7272 17.2768 81.4773 17.1168 82.2974H12.6876V80.4972C12.6876 78.527 12.3677 77.0069 11.7378 75.9368C11.0979 74.8667 10.1981 74.3367 9.00832 74.3367C7.92852 74.3367 7.11867 74.6367 6.55878 75.2267C6.00888 75.8168 5.72893 76.6069 5.72893 77.607C5.72893 78.457 5.9089 79.2271 6.25883 79.9172C6.60877 80.6072 7.06868 81.3273 7.60858 82.0574L14.2773 90.4281C15.5071 91.9883 16.4369 93.4784 17.0768 94.8885C17.7167 96.2987 18.0366 97.8688 18.0366 99.589C18.0366 102.169 17.2068 104.219 15.5371 105.73C13.8674 107.24 11.6478 108 8.86835 108C6.58877 108 4.8091 107.62 3.51934 106.85C2.22958 106.08 1.31975 105.089 0.789853 103.879C0.26995 102.669 0 101.399 0 100.069L0.0299944 100.079Z" fill="#494949"/>
<path d="M22.4556 70.2461H28.1945V85.9075H34.9932V70.2461H40.7322V107.66H34.9932V90.378H28.1945V107.66H22.4556V70.2461Z" fill="#494949"/>
<path d="M51.2203 70.2461H57.6891L64.7578 107.66H58.9989L57.9591 100.959H50.9604L49.9606 107.66H44.1816L51.2303 70.2461H51.2203ZM57.2892 96.6885L54.5897 77.9568H54.3497L51.6203 96.6885H57.2892Z" fill="#494949"/>
<path d="M68.187 70.2461H74.4159C75.2857 70.2461 76.2455 70.2961 77.2953 70.3961C78.3451 70.4961 79.3849 70.7261 80.4147 71.0862C81.4445 71.4462 82.3944 72.0063 83.2542 72.7763C84.114 73.5464 84.8039 74.5865 85.3238 75.9066C85.8437 77.2267 86.1137 78.9069 86.1137 80.9371V81.8772C86.1137 87.4877 84.404 91.088 80.9946 92.6982L87.2235 107.66H81.1046L75.8956 93.6583H73.9259V107.66H68.187V70.2461ZM74.6858 89.5679C76.7854 89.5679 78.2251 89.0878 79.015 88.1177C79.8048 87.1577 80.2048 85.4175 80.2048 82.9073V79.947C80.2048 78.0168 79.8348 76.6067 79.085 75.6966C78.3351 74.7865 76.8754 74.3365 74.6858 74.3365H73.9359V89.5579H74.6858V89.5679Z" fill="#494949"/>
<path d="M91.6128 70.2461H106.08V74.7165H97.3517V85.9075H104.2V90.378H97.3517V103.189H106.08V107.66H91.6128V70.2461Z" fill="#494949"/>
<path d="M86.634 44.2445L74.6362 4.86084H84.0145L91.1232 34.1235H91.5531L98.6617 4.86084H108L95.9323 44.2445V61.9261H86.624V44.2445H86.634Z" fill="#494949"/>
<path d="M69.467 9.8109C68.8871 6.93064 66.3276 4.86045 63.3582 4.86045H60.4487V4.21039C60.4487 1.89017 58.5391 0 56.1895 0C53.8399 0 51.9303 1.89017 51.9303 4.21039V4.86045C51.6203 4.83045 51.3204 4.81044 51.0105 4.81044H49.3408V4.21039C49.3408 1.89017 47.4311 0 45.0816 0C42.732 0 40.8224 1.89017 40.8224 4.21039V4.81044H38.2328V4.21039C38.2328 1.89017 36.3232 0 33.9736 0C31.6241 0 29.7144 1.89017 29.7144 4.21039V4.81044H27.1249V4.21039C27.1249 1.89017 25.2153 0 22.8657 0C20.5161 0 18.6065 1.89017 18.6065 4.21039V4.81044H16.5569C15.707 4.81044 14.9772 5.3905 14.7872 6.20057L2.29954 59.7655C2.17957 60.2956 2.29954 60.8556 2.64948 61.2856C2.99941 61.7157 3.51932 61.9657 4.06921 61.9657H46.2713C46.5613 61.9657 46.8512 61.9557 47.1412 61.9257H52.9101C54.6398 61.9257 56.1195 60.6656 56.3695 58.9754L57.5492 54.655H68.8971L70.5868 61.8757H79.9251L69.457 9.8209L69.467 9.8109ZM43.9318 4.21039C43.9318 3.58033 44.4517 3.06028 45.0916 3.06028C45.7314 3.06028 46.2513 3.57033 46.2513 4.21039V6.93064C46.2513 7.5607 45.7314 8.08074 45.0916 8.08074C44.4517 8.08074 43.9318 7.5707 43.9318 6.93064V4.21039ZM32.8238 4.21039C32.8238 3.58033 33.3438 3.06028 33.9836 3.06028C34.6235 3.06028 35.1434 3.57033 35.1434 4.21039V6.93064C35.1434 7.5607 34.6235 8.08074 33.9836 8.08074C33.3438 8.08074 32.8238 7.5707 32.8238 6.93064V4.21039ZM21.7259 4.21039C21.7259 3.58033 22.2458 3.06028 22.8857 3.06028C23.5256 3.06028 24.0455 3.57033 24.0455 4.21039V6.93064C24.0455 7.5607 23.5256 8.08074 22.8857 8.08074C22.2458 8.08074 21.7259 7.5707 21.7259 6.93064V4.21039ZM55.0397 4.21039C55.0397 3.58033 55.5596 3.06028 56.1995 3.06028C56.8394 3.06028 57.3593 3.57033 57.3593 4.21039V6.93064C57.3593 7.5607 56.8394 8.08074 56.1995 8.08074C55.5596 8.08074 55.0397 7.5707 55.0397 6.93064V4.21039ZM58.629 47.7244L63.0482 17.3616H63.4481L67.8273 47.7244H58.629Z" fill="#494949"/>
<path d="M43.9321 4.21062C43.9321 3.58045 44.4521 3.0603 45.0921 3.0603C45.7321 3.0603 46.2521 3.57044 46.2521 4.21062V6.93138C46.2521 7.56156 45.7321 8.0817 45.0921 8.0817C44.4521 8.0817 43.9321 7.57156 43.9321 6.93138V4.21062Z" fill="white"/>
<path d="M32.8242 4.21062C32.8242 3.58045 33.3442 3.0603 33.9842 3.0603C34.6242 3.0603 35.1442 3.57044 35.1442 4.21062V6.93138C35.1442 7.56156 34.6242 8.0817 33.9842 8.0817C33.3442 8.0817 32.8242 7.57156 32.8242 6.93138V4.21062Z" fill="white"/>
<path d="M21.7261 4.21062C21.7261 3.58045 22.2461 3.0603 22.8861 3.0603C23.5261 3.0603 24.0461 3.57044 24.0461 4.21062V6.93138C24.0461 7.56156 23.5261 8.0817 22.8861 8.0817C22.2461 8.0817 21.7261 7.57156 21.7261 6.93138V4.21062Z" fill="white"/>
<path d="M55.04 4.21062C55.04 3.58045 55.56 3.0603 56.2 3.0603C56.84 3.0603 57.36 3.57044 57.36 4.21062V6.93138C57.36 7.56156 56.84 8.0817 56.2 8.0817C55.56 8.0817 55.04 7.57156 55.04 6.93138V4.21062Z" fill="white"/>
<path d="M41.5823 15.0415C38.7628 15.0415 36.3333 16.7517 35.2735 19.1819C34.2137 16.7517 31.7841 15.0415 28.9647 15.0415C25.1654 15.0415 22.0859 18.1318 22.0859 21.9221C22.0859 25.7125 25.1754 28.8028 28.9647 28.8028C31.7841 28.8028 34.2037 27.0926 35.2735 24.6624C36.3333 27.0926 38.7628 28.8028 41.5823 28.8028C45.3716 28.8028 48.461 25.7125 48.461 21.9221C48.461 18.1318 45.3716 15.0415 41.5823 15.0415Z" fill="white"/>
<path d="M41.5823 18.6011C39.7427 18.6011 38.2529 20.0912 38.2529 21.9314C38.2529 23.7716 39.7427 25.2617 41.5823 25.2617C43.422 25.2617 44.9117 23.7716 44.9117 21.9314C44.9117 20.0912 43.422 18.6011 41.5823 18.6011Z" fill="#494949"/>
<path d="M28.9749 18.6011C27.1352 18.6011 25.6455 20.0912 25.6455 21.9314C25.6455 23.7716 27.1352 25.2617 28.9749 25.2617C30.8145 25.2617 32.3043 23.7716 32.3043 21.9314C32.3043 20.0912 30.8145 18.6011 28.9749 18.6011Z" fill="#494949"/>
</svg>
