<?xml version="1.0" encoding="UTF-8"?>
<svg id="_레이어_1" data-name="레이어_1" xmlns="http://www.w3.org/2000/svg" viewBox="0 0 15 20">
  <defs>
    <style>
      .cls-1 {
        fill: #494949;
      }

      .cls-2 {
        fill: #f6bebe;
      }
    </style>
  </defs>
  <path class="cls-2" d="M13.44,8.39L3.87,1.29c-1.32-.98-3.19-.04-3.19,1.61v14.22c0,1.64,1.87,2.59,3.19,1.61l9.56-7.11c1.08-.8,1.08-2.41,0-3.21Z"/>
  <path class="cls-1" d="M2.5,20c-.39,0-.78-.09-1.14-.28-.84-.44-1.36-1.31-1.36-2.28V2.56C0,1.59.52.72,1.36.28c.84-.44,1.84-.36,2.6.21l10.01,7.44h0c.65.49,1.03,1.24,1.03,2.07s-.38,1.58-1.03,2.07l-10.01,7.44c-.44.32-.95.49-1.46.49ZM2.5,1.39c-.18,0-.35.04-.52.13-.39.2-.62.59-.62,1.04v14.88c0,.45.23.83.62,1.03.39.2.83.17,1.18-.09l10.01-7.44c.3-.22.47-.56.47-.94s-.17-.72-.47-.94L3.16,1.62c-.2-.15-.43-.23-.66-.23Z"/>
</svg>