<?xml version="1.0" encoding="UTF-8"?>
<svg id="_레이어_1" data-name="레이어_1" xmlns="http://www.w3.org/2000/svg" viewBox="0 0 15 20">
  <defs>
    <style>
      .prev_disabled-cls-1 {
        fill: #494949;
      }

      .prev_disabled-cls-2 {
        fill: #c5c5c5;
      }
    </style>
  </defs>
  <path class="prev_disabled-cls-2" d="M1.56,11.61l9.56,7.11c1.32.98,3.19.04,3.19-1.61V2.89c0-1.64-1.87-2.59-3.19-1.61L1.56,8.39c-1.08.8-1.08,2.41,0,3.21Z"/>
  <path class="prev_disabled-cls-1" d="M12.5,0c.39,0,.78.09,1.14.28.84.44,1.36,1.31,1.36,2.28v14.88c0,.97-.52,1.84-1.36,2.28-.84.44-1.84.36-2.6-.21L1.03,12.07h0c-.65-.49-1.03-1.24-1.03-2.07s.38-1.58,1.03-2.07L11.04.49c.44-.32.95-.49,1.46-.49ZM12.5,18.61c.18,0,.35-.04.52-.13.39-.2.62-.59.62-1.04V2.56c0-.45-.23-.83-.62-1.03-.39-.2-.83-.17-1.18.09L1.83,9.06c-.3.22-.47.56-.47.94s.17.72.47.94l10.01,7.44c.2.15.43.23.66.23Z"/>
</svg>