<?xml version="1.0" encoding="UTF-8"?>
<svg id="_선깸" data-name="선깸" xmlns="http://www.w3.org/2000/svg" version="1.1" viewBox="0 0 30 30">
  <!-- Generator: Adobe Illustrator 29.3.0, SVG Export Plug-In . SVG Version: 2.1.0 Build 146)  -->
  <defs>
    <style>
      .st0 {
        fill: #494949;
      }

      .st1 {
        fill: #f6bebe;
      }
    </style>
  </defs>
  <path class="st0" d="M15,30C6.73,30,0,23.27,0,15S6.73,0,15,0s15,6.73,15,15-6.73,15-15,15ZM15,1.43C7.52,1.43,1.43,7.52,1.43,15s6.09,13.57,13.57,13.57,13.57-6.09,13.57-13.57S22.48,1.43,15,1.43Z"/>
  <g>
    <g>
      <circle class="st1" cx="15" cy="12.17" r="4.39"/>
      <path class="st0" d="M15,17.27c-2.81,0-5.1-2.29-5.1-5.1s2.29-5.1,5.1-5.1,5.1,2.29,5.1,5.1-2.29,5.1-5.1,5.1ZM15,8.49c-2.03,0-3.67,1.65-3.67,3.67s1.65,3.67,3.67,3.67,3.67-1.65,3.67-3.67-1.65-3.67-3.67-3.67Z"/>
    </g>
    <g>
      <path class="st1" d="M21.59,22.22c.67,0,1.2-.51,1.01-1.03-.94-2.67-3.99-4.64-7.61-4.64s-6.62,1.93-7.59,4.57c-.2.55.28,1.1.99,1.1h13.19Z"/>
      <path class="st0" d="M21.59,22.94h-13.19c-.61,0-1.17-.27-1.49-.73-.28-.4-.34-.88-.18-1.33,1.1-3.01,4.42-5.04,8.26-5.04s7.23,2.1,8.29,5.11c.15.42.08.88-.19,1.25-.32.46-.89.73-1.5.73ZM14.99,17.27c-3.19,0-6.03,1.69-6.92,4.1,0,.03.1.14.32.14h13.19c.2,0,.32-.1.34-.13-.86-2.4-3.71-4.11-6.94-4.11Z"/>
    </g>
  </g>
</svg>