<?xml version="1.0" encoding="UTF-8"?>
<svg id="_레이어_1" data-name="레이어_1" xmlns="http://www.w3.org/2000/svg" viewBox="0 0 30 30">
  <defs>
    <style>
      .cls-1 {
        fill: #494949;
      }

      .cls-2 {
        fill: #f6bebe;
      }
    </style>
  </defs>
  <path class="cls-2" d="M28.4,24.1l-3.2-3.2c1.25-2.02,1.99-4.4,1.99-6.95C27.19,6.64,21.26.71,13.95.71S.71,6.64.71,13.95s5.93,13.24,13.24,13.24c2.55,0,4.93-.74,6.95-1.99l3.2,3.2c1.19,1.19,3.11,1.19,4.29,0,1.19-1.19,1.19-3.11,0-4.29ZM13.95,21.31c-4.06,0-7.35-3.29-7.35-7.35s3.29-7.35,7.35-7.35,7.35,3.29,7.35,7.35-3.29,7.35-7.35,7.35Z"/>
  <path class="cls-1" d="M26.25,30c-.96,0-1.92-.37-2.65-1.1l-2.81-2.81c-2.09,1.18-4.45,1.81-6.84,1.81C6.26,27.9,0,21.64,0,13.95S6.26,0,13.95,0s13.95,6.26,13.95,13.95c0,2.39-.62,4.75-1.81,6.84l2.81,2.81c1.46,1.46,1.46,3.84,0,5.3-.73.73-1.69,1.1-2.65,1.1ZM21.01,24.29l3.6,3.6c.91.91,2.38.91,3.28,0,.91-.91.91-2.38,0-3.28l-3.6-3.6.3-.48c1.23-1.99,1.88-4.26,1.88-6.58,0-6.91-5.62-12.52-12.52-12.52S1.43,7.05,1.43,13.95s5.62,12.52,12.52,12.52c2.32,0,4.59-.65,6.58-1.88l.48-.3ZM13.95,22.02c-4.45,0-8.07-3.62-8.07-8.07s3.62-8.07,8.07-8.07,8.07,3.62,8.07,8.07-3.62,8.07-8.07,8.07ZM13.95,7.31c-3.66,0-6.64,2.98-6.64,6.64s2.98,6.64,6.64,6.64,6.64-2.98,6.64-6.64-2.98-6.64-6.64-6.64Z"/>
</svg>