<svg width="32" height="32" viewBox="0 0 32 32" fill="none" xmlns="http://www.w3.org/2000/svg">
<path d="M16 31C24.2843 31 31 24.2843 31 16C31 7.71573 24.2843 1 16 1C7.71573 1 1 7.71573 1 16C1 24.2843 7.71573 31 16 31Z" fill="#F8F3CE" stroke="#494949" stroke-width="1.5" stroke-linecap="round" stroke-linejoin="round"/>
<path d="M25 16C25 14.722 24.334 13.606 23.332 12.964C23.584 11.8 23.266 10.54 22.366 9.63397C21.46 8.72797 20.2 8.40998 19.036 8.66798C18.394 7.66598 17.278 7 16 7C14.722 7 13.606 7.66598 12.964 8.66798C11.8 8.41598 10.54 8.73397 9.634 9.63397C8.728 10.54 8.41 11.8 8.668 12.964C7.666 13.606 7 14.722 7 16C7 17.278 7.666 18.394 8.668 19.036C8.416 20.2 8.734 21.46 9.634 22.366C10.54 23.272 11.8 23.59 12.964 23.332C13.606 24.334 14.722 25 16 25C17.278 25 18.394 24.334 19.036 23.332C20.2 23.584 21.46 23.266 22.366 22.366C23.272 21.46 23.59 20.2 23.332 19.036C24.334 18.394 25 17.278 25 16ZM16 18.94C14.38 18.94 13.06 17.626 13.06 16C13.06 14.374 14.374 13.06 16 13.06C17.626 13.06 18.94 14.374 18.94 16C18.94 17.626 17.626 18.94 16 18.94Z" fill="#F6BEBE" stroke="#494949" stroke-width="1.5" stroke-miterlimit="10"/>
</svg>
