<?xml version="1.0" encoding="UTF-8"?>
<svg id="_레이어_1" data-name="레이어_1" xmlns="http://www.w3.org/2000/svg" viewBox="0 0 30 30">
  <defs>
    <style>
      .setting-cls-1 {
        fill: #494949;
      }

      .setting-cls-2 {
        fill: #f6bebe;
      }
    </style>
  </defs>
  <path class="setting-cls-2" d="M29.29,15c0-2.03-1.06-3.8-2.65-4.82.4-1.84-.1-3.85-1.54-5.28-1.43-1.43-3.44-1.94-5.28-1.54-1.02-1.59-2.79-2.65-4.82-2.65s-3.8,1.06-4.82,2.65c-1.84-.4-3.85.1-5.28,1.54-1.43,1.43-1.94,3.44-1.54,5.28-1.59,1.02-2.65,2.79-2.65,4.82s1.06,3.8,2.65,4.82c-.4,1.84.1,3.85,1.54,5.28s3.44,1.94,5.28,1.54c1.02,1.59,2.79,2.65,4.82,2.65s3.8-1.06,4.82-2.65c1.84.4,3.85-.1,5.28-1.54,1.43-1.43,1.94-3.44,1.54-5.28,1.59-1.02,2.65-2.79,2.65-4.82ZM15,19.66c-2.57,0-4.66-2.09-4.66-4.66s2.09-4.66,4.66-4.66,4.66,2.09,4.66,4.66-2.09,4.66-4.66,4.66Z"/>
  <path class="setting-cls-1" d="M15,30c-2.04,0-3.93-.96-5.15-2.58-2.01.28-4.02-.37-5.46-1.81s-2.1-3.45-1.82-5.46c-1.62-1.22-2.58-3.11-2.58-5.15s.96-3.93,2.58-5.15c-.29-2.01.37-4.02,1.82-5.46,1.44-1.44,3.46-2.1,5.46-1.81C11.07.95,12.96,0,15,0s3.93.96,5.15,2.58c2.01-.29,4.02.37,5.46,1.81,1.44,1.44,2.1,3.45,1.82,5.46,1.62,1.22,2.58,3.11,2.58,5.15s-.96,3.93-2.58,5.15c.29,2.01-.37,4.02-1.82,5.46-1.44,1.44-3.45,2.1-5.46,1.81-1.22,1.62-3.11,2.58-5.15,2.58ZM10.51,25.83l.27.42c.93,1.45,2.51,2.32,4.22,2.32s3.29-.87,4.22-2.32l.27-.42.49.11c1.69.37,3.42-.13,4.62-1.34s1.71-2.94,1.34-4.62l-.11-.49.42-.27c1.45-.93,2.32-2.51,2.32-4.22s-.87-3.29-2.32-4.22l-.42-.27.11-.49c.37-1.69-.13-3.41-1.34-4.62s-2.94-1.71-4.62-1.34l-.49.11-.27-.42c-.93-1.45-2.51-2.32-4.22-2.32s-3.29.87-4.22,2.32l-.27.42-.49-.11c-1.69-.37-3.42.13-4.62,1.34-1.21,1.21-1.71,2.94-1.34,4.62l.11.49-.42.27c-1.45.93-2.32,2.51-2.32,4.22s.87,3.29,2.32,4.22l.42.27-.11.49c-.37,1.69.13,3.41,1.34,4.62s2.94,1.71,4.62,1.34l.49-.11ZM15,20.38c-2.97,0-5.38-2.41-5.38-5.38s2.41-5.38,5.38-5.38,5.38,2.41,5.38,5.38-2.41,5.38-5.38,5.38ZM15,11.05c-2.18,0-3.95,1.77-3.95,3.95s1.77,3.95,3.95,3.95,3.95-1.77,3.95-3.95-1.77-3.95-3.95-3.95Z"/>
</svg>