<?xml version="1.0" encoding="UTF-8"?>
<svg id="_레이어_1" data-name="레이어_1" xmlns="http://www.w3.org/2000/svg" viewBox="0 0 20 20">
  <defs>
    <style>
      .star_o-cls-1 {
        fill: #494949;
      }

      .star_o-cls-2 {
        fill: #f6bebe;
      }
    </style>
  </defs>
  <polygon class="star_o-cls-2" points="10 1.2 12.59 7.37 19.25 7.92 14.19 12.29 15.72 18.8 10 15.33 4.28 18.8 5.81 12.29 .75 7.92 7.41 7.37 10 1.2"/>
  <path class="star_o-cls-1" d="M15.72,19.55c-.13,0-.27-.04-.39-.11l-5.33-3.23-5.33,3.23c-.26.16-.58.14-.83-.04-.25-.18-.36-.48-.29-.78l1.43-6.07L.26,8.49c-.23-.2-.32-.51-.22-.8.09-.29.35-.49.65-.52l6.21-.52L9.31.91c.23-.56,1.15-.56,1.38,0l2.41,5.75,6.21.52c.3.02.56.23.65.52.09.29,0,.6-.22.8l-4.72,4.07,1.43,6.07c.07.29-.04.6-.29.78-.13.1-.29.14-.44.14ZM10,14.58c.13,0,.27.04.39.11l4.19,2.54-1.12-4.77c-.06-.27.03-.56.24-.74l3.71-3.2-4.88-.41c-.28-.02-.52-.2-.63-.46l-1.9-4.52-1.9,4.52c-.11.26-.35.43-.63.46l-4.88.41,3.71,3.2c.21.18.3.47.24.74l-1.12,4.77,4.19-2.54c.12-.07.25-.11.39-.11Z"/>
</svg>