<?xml version="1.0" encoding="UTF-8"?>
<svg id="_선깸" data-name="선깸" xmlns="http://www.w3.org/2000/svg" version="1.1" viewBox="0 0 30 30">
  <!-- Generator: Adobe Illustrator 29.3.0, SVG Export Plug-In . SVG Version: 2.1.0 Build 146)  -->
  <defs>
    <style>
      .st0 {
        fill: #494949;
      }

      .st1 {
        fill: #f6bebe;
      }
    </style>
  </defs>
  <path class="st0" d="M15,30C6.73,30,0,23.27,0,15S6.73,0,15,0s15,6.73,15,15-6.73,15-15,15ZM15,1.43C7.52,1.43,1.43,7.52,1.43,15s6.09,13.57,13.57,13.57,13.57-6.09,13.57-13.57S22.48,1.43,15,1.43Z"/>
  <path class="st0" d="M20.71,22.38h-11.43c-1.97,0-3.57-1.6-3.57-3.57v-7.43c0-1.97,1.6-3.57,3.57-3.57h11.43c1.97,0,3.57,1.6,3.57,3.57v7.43c0,1.97-1.6,3.57-3.57,3.57ZM9.29,9.24c-1.18,0-2.14.96-2.14,2.14v7.43c0,1.18.96,2.14,2.14,2.14h11.43c1.18,0,2.14-.96,2.14-2.14v-7.43c0-1.18-.96-2.14-2.14-2.14h-11.43Z"/>
  <g>
    <path class="st1" d="M9.29,8.52h11.43c1.58,0,2.86,1.28,2.86,2.86v1.14H6.43v-1.14c0-1.58,1.28-2.86,2.86-2.86Z"/>
    <path class="st0" d="M24.29,13.24H5.71v-1.86c0-1.97,1.6-3.57,3.57-3.57h11.43c1.97,0,3.57,1.6,3.57,3.57v1.86ZM7.14,11.81h15.71v-.43c0-1.18-.96-2.14-2.14-2.14h-11.43c-1.18,0-2.14.96-2.14,2.14v.43Z"/>
  </g>
  <g>
    <path class="st0" d="M11.47,7.99c0-.34-.27-.61-.61-.61s-.61.27-.61.61v1.71c0,.34.27.61.61.61s.61-.27.61-.61v-1.71Z"/>
    <path class="st0" d="M10.86,11.03c-.73,0-1.33-.6-1.33-1.33v-1.71c0-.73.59-1.33,1.33-1.33s1.33.59,1.33,1.33v1.71c0,.73-.6,1.33-1.33,1.33Z"/>
  </g>
  <g>
    <path class="st0" d="M15.61,7.99c0-.34-.27-.61-.61-.61s-.61.27-.61.61v1.71c0,.34.27.61.61.61s.61-.27.61-.61v-1.71Z"/>
    <path class="st0" d="M15,11.03c-.73,0-1.33-.6-1.33-1.33v-1.71c0-.73.6-1.33,1.33-1.33s1.33.59,1.33,1.33v1.71c0,.73-.59,1.33-1.33,1.33Z"/>
  </g>
  <g>
    <path class="st0" d="M19.75,7.99c0-.34-.27-.61-.61-.61s-.61.27-.61.61v1.71c0,.34.27.61.61.61s.61-.27.61-.61v-1.71Z"/>
    <path class="st0" d="M19.14,11.03c-.73,0-1.33-.6-1.33-1.33v-1.71c0-.73.6-1.33,1.33-1.33s1.33.59,1.33,1.33v1.71c0,.73-.59,1.33-1.33,1.33Z"/>
  </g>
</svg>