<svg width="27" height="22" viewBox="0 0 27 22" fill="none" xmlns="http://www.w3.org/2000/svg">
<path d="M21.5 2.59998H5.5C3.29086 2.59998 1.5 4.39084 1.5 6.59998V17C1.5 19.2091 3.29086 21 5.5 21H21.5C23.7091 21 25.5 19.2091 25.5 17V6.59998C25.5 4.39084 23.7091 2.59998 21.5 2.59998Z" fill="white" stroke="#494949" stroke-width="1.5" stroke-miterlimit="10" stroke-linecap="round"/>
<path d="M5.5 2.59998H21.5C23.708 2.59998 25.5 4.39198 25.5 6.59998V8.19998H1.5V6.59998C1.5 4.39198 3.292 2.59998 5.5 2.59998Z" fill="#F6BEBE" stroke="#494949" stroke-width="1.5" stroke-miterlimit="10" stroke-linecap="round"/>
<path d="M8.56393 1.856C8.56393 1.38324 8.18068 1 7.70793 1C7.23517 1 6.85193 1.38324 6.85193 1.856V4.256C6.85193 4.72876 7.23517 5.112 7.70793 5.112C8.18068 5.112 8.56393 4.72876 8.56393 4.256V1.856Z" fill="#494949" stroke="#494949" stroke-width="1.5" stroke-miterlimit="10" stroke-linecap="round"/>
<path d="M14.3559 1.856C14.3559 1.38324 13.9727 1 13.4999 1C13.0272 1 12.6439 1.38324 12.6439 1.856V4.256C12.6439 4.72876 13.0272 5.112 13.4999 5.112C13.9727 5.112 14.3559 4.72876 14.3559 4.256V1.856Z" fill="#494949" stroke="#494949" stroke-width="1.5" stroke-miterlimit="10" stroke-linecap="round"/>
<path d="M20.1479 1.856C20.1479 1.38324 19.7647 1 19.2919 1C18.8192 1 18.4359 1.38324 18.4359 1.856V4.256C18.4359 4.72876 18.8192 5.112 19.2919 5.112C19.7647 5.112 20.1479 4.72876 20.1479 4.256V1.856Z" fill="#494949" stroke="#494949" stroke-width="1.5" stroke-miterlimit="10" stroke-linecap="round"/>
</svg>
