<?xml version="1.0" encoding="UTF-8"?>
<svg id="_선깸" data-name="선깸" xmlns="http://www.w3.org/2000/svg" viewBox="0 0 10 10">
  <defs>
    <style>
      .x-cls-1 {
        fill: #494949;
      }
    </style>
  </defs>
  <path class="x-cls-1" d="M9.55,10c-.12,0-.23-.04-.32-.13L.13.78C-.04.6-.04.31.13.13S.6-.04.78.13l9.09,9.09c.18.18.18.47,0,.64-.09.09-.21.13-.32.13Z"/>
  <path class="x-cls-1" d="M.45,10c-.12,0-.23-.04-.32-.13-.18-.18-.18-.47,0-.64L9.22.13c.18-.18.47-.18.64,0s.18.47,0,.64L.78,9.87c-.09.09-.21.13-.32.13Z"/>
</svg>